<svg width="16" height="16" viewBox="0 0 16 16" fill="none" xmlns="http://www.w3.org/2000/svg">
<g clip-path="url(#clip0_429_127615)">
<path d="M5.33333 8.00008H8M6.66667 10.6667V6.33341C6.66667 5.89139 6.84226 5.46746 7.15482 5.1549C7.46738 4.84234 7.89131 4.66675 8.33333 4.66675C8.77536 4.66675 9.19928 4.84234 9.51184 5.1549C9.82441 5.46746 10 5.89139 10 6.33341M5.33333 10.6667H10M2.5668 5.74681C2.46949 5.3085 2.48443 4.85271 2.61023 4.42171C2.73604 3.9907 2.96863 3.59844 3.28644 3.28129C3.60425 2.96415 3.997 2.73238 4.42827 2.60748C4.85953 2.48258 5.31535 2.46859 5.75346 2.56681C5.9946 2.18968 6.3268 1.87932 6.71943 1.66434C7.11206 1.44935 7.55249 1.33667 8.00013 1.33667C8.44776 1.33667 8.8882 1.44935 9.28083 1.66434C9.67346 1.87932 10.0057 2.18968 10.2468 2.56681C10.6856 2.46816 11.1422 2.48209 11.5741 2.60729C12.0061 2.73249 12.3994 2.96491 12.7174 3.28292C13.0354 3.60092 13.2678 3.9942 13.393 4.42615C13.5182 4.8581 13.5321 5.3147 13.4335 5.75348C13.8106 5.99462 14.121 6.32682 14.3359 6.71945C14.5509 7.11208 14.6636 7.55251 14.6636 8.00015C14.6636 8.44778 14.5509 8.88821 14.3359 9.28085C14.121 9.67348 13.8106 10.0057 13.4335 10.2468C13.5317 10.6849 13.5177 11.1407 13.3928 11.572C13.2679 12.0033 13.0361 12.396 12.719 12.7138C12.4018 13.0316 12.0096 13.2642 11.5786 13.39C11.1476 13.5158 10.6918 13.5308 10.2535 13.4335C10.0126 13.8121 9.68018 14.1237 9.28688 14.3397C8.89358 14.5556 8.45215 14.6688 8.00346 14.6688C7.55478 14.6688 7.11335 14.5556 6.72004 14.3397C6.32674 14.1237 5.99429 13.8121 5.75346 13.4335C5.31535 13.5317 4.85953 13.5177 4.42827 13.3928C3.997 13.2679 3.60425 13.0361 3.28644 12.719C2.96863 12.4019 2.73604 12.0096 2.61023 11.5786C2.48443 11.1476 2.46949 10.6918 2.5668 10.2535C2.18677 10.013 1.87374 9.68026 1.65683 9.28629C1.43992 8.89232 1.32617 8.44988 1.32617 8.00015C1.32617 7.55041 1.43992 7.10798 1.65683 6.714C1.87374 6.32003 2.18677 5.98732 2.5668 5.74681Z" stroke="#F59E0B" stroke-width="1.33" stroke-linecap="round" stroke-linejoin="round"/>
</g>
<defs>
<clipPath id="clip0_429_127615">
<rect width="16" height="16" fill="white"/>
</clipPath>
</defs>
</svg>
