<svg width="16" height="16" viewBox="0 0 16 16" fill="none" xmlns="http://www.w3.org/2000/svg">
<g clip-path="url(#clip0_446_36953)">
<path d="M5.33529 8.00008H8.00195M6.66862 10.6667V6.33341C6.66862 5.89139 6.84421 5.46746 7.15678 5.1549C7.46934 4.84234 7.89326 4.66675 8.33529 4.66675C8.77731 4.66675 9.20124 4.84234 9.5138 5.1549C9.82636 5.46746 10.002 5.89139 10.002 6.33341M5.33529 10.6667H10.002M2.56875 5.74681C2.47144 5.3085 2.48638 4.85271 2.61219 4.42171C2.73799 3.9907 2.97058 3.59844 3.28839 3.28129C3.60621 2.96415 3.99896 2.73238 4.43022 2.60748C4.86148 2.48258 5.3173 2.46859 5.75542 2.56681C5.99655 2.18968 6.32875 1.87932 6.72138 1.66434C7.11401 1.44935 7.55445 1.33667 8.00208 1.33667C8.44972 1.33667 8.89015 1.44935 9.28278 1.66434C9.67541 1.87932 10.0076 2.18968 10.2487 2.56681C10.6875 2.46816 11.1441 2.48209 11.5761 2.60729C12.008 2.73249 12.4013 2.96491 12.7193 3.28292C13.0373 3.60092 13.2697 3.9942 13.3949 4.42615C13.5201 4.8581 13.5341 5.3147 13.4354 5.75348C13.8125 5.99462 14.1229 6.32682 14.3379 6.71945C14.5529 7.11208 14.6656 7.55251 14.6656 8.00015C14.6656 8.44778 14.5529 8.88821 14.3379 9.28085C14.1229 9.67348 13.8125 10.0057 13.4354 10.2468C13.5336 10.6849 13.5197 11.1407 13.3948 11.572C13.2699 12.0033 13.0381 12.396 12.7209 12.7138C12.4038 13.0316 12.0115 13.2642 11.5805 13.39C11.1495 13.5158 10.6937 13.5308 10.2554 13.4335C10.0146 13.8121 9.68213 14.1237 9.28883 14.3397C8.89553 14.5556 8.4541 14.6688 8.00542 14.6688C7.55673 14.6688 7.1153 14.5556 6.722 14.3397C6.3287 14.1237 5.99624 13.8121 5.75542 13.4335C5.3173 13.5317 4.86148 13.5177 4.43022 13.3928C3.99896 13.2679 3.60621 13.0361 3.28839 12.719C2.97058 12.4019 2.73799 12.0096 2.61219 11.5786C2.48638 11.1476 2.47144 10.6918 2.56875 10.2535C2.18872 10.013 1.87569 9.68026 1.65878 9.28629C1.44187 8.89232 1.32812 8.44988 1.32812 8.00015C1.32812 7.55041 1.44187 7.10798 1.65878 6.714C1.87569 6.32003 2.18872 5.98732 2.56875 5.74681Z" stroke="#EF4444" stroke-width="1.33" stroke-linecap="round" stroke-linejoin="round"/>
</g>
<defs>
<clipPath id="clip0_446_36953">
<rect width="16" height="16" fill="white"/>
</clipPath>
</defs>
</svg>
