<svg width="255" height="182" viewBox="0 0 255 182" fill="none" xmlns="http://www.w3.org/2000/svg">
<path d="M21.6328 82.7621C21.6328 76.5287 26.6859 71.4756 32.9193 71.4756H209.741C215.974 71.4756 221.027 76.5287 221.027 82.7621V196.567H21.6328V82.7621Z" fill="#D6D5D5"/>
<g clip-path="url(#clip0_573_35050)">
<path d="M68.9903 154.683C67.7019 154.003 62.5853 151.559 62.285 150.493C61.8486 148.944 63.2282 144.606 63.8172 143.086C68.1928 131.79 73.2266 120.719 77.9338 109.555L96.7755 63.8115L106.001 41.3635C107.54 37.574 111.204 27.2761 114.07 24.9626C115.277 23.9877 129.54 29.9732 131.815 30.8837L151.559 38.7291L165.01 43.9254C167.208 44.7804 169.498 45.4767 171.529 46.6753C173.165 47.6406 172.903 48.9579 172.65 50.6521C174.451 52.9993 185.148 59.339 188.304 61.7673C189.711 62.5177 191.288 63.7678 192.592 64.7392C194.807 66.238 207.839 74.4613 208.112 76.2497C208.274 77.3092 206.516 80.0008 205.942 80.9093C201.822 87.429 197.157 93.6499 192.736 99.9695L165.775 138.117C157.278 150.133 148.683 162.08 139.99 173.955C136.774 178.261 133.046 184.218 128.973 187.758C128.164 188.461 126.775 187.476 126.027 186.975C124.712 186.255 123.404 185.41 122.129 184.613C121.319 184.279 118.524 182.632 117.532 182.075L106.925 176.064C102.989 173.829 99.033 171.629 95.0581 169.463C92.2549 167.921 88.483 165.918 85.927 164.066C84.5285 163.168 82.8168 162.437 81.3386 161.619C77.2626 159.365 72.9117 157.189 68.9903 154.683Z" fill="#65CC99"/>
<path d="M68.9902 154.687C71.3248 155.536 73.6164 156.136 75.9811 157.066C89.8685 162.532 103.578 168.452 117.412 174.051C120.444 175.279 121.207 174.685 122.631 171.784C124.436 168.106 125.995 164.28 127.614 160.514C130.979 152.647 134.289 144.756 137.545 136.843C146.578 115.384 155.417 93.8449 164.061 72.2267C165.96 67.549 167.826 62.858 169.66 58.1542C170.317 56.4545 171.922 51.8941 172.65 50.6554C174.451 53.0025 185.148 59.3422 188.304 61.7705C189.711 62.521 191.288 63.771 192.592 64.7424C194.807 66.2412 207.839 74.4645 208.112 76.2529C208.274 77.3124 206.516 80.0041 205.942 80.9125C201.822 87.4322 197.157 93.6531 192.736 99.9727L165.775 138.12C157.278 150.136 148.683 162.083 139.99 173.958C136.774 178.265 133.046 184.221 128.973 187.761C128.164 188.465 126.774 187.479 126.027 186.978C124.712 186.258 123.404 185.413 122.129 184.616C121.319 184.282 118.524 182.636 117.532 182.079L106.925 176.067C102.989 173.833 99.033 171.632 95.058 169.467C92.2549 167.924 88.4829 165.922 85.9269 164.069C84.5284 163.171 82.8167 162.44 81.3385 161.622C77.2625 159.369 72.9116 157.192 68.9902 154.687Z" fill="#2F9562"/>
<path d="M188.311 61.751C189.718 62.5015 191.295 63.7515 192.599 64.7229C194.814 66.2218 207.846 74.445 208.119 76.2334C208.281 77.2929 206.523 79.9846 205.949 80.893C201.829 87.4127 197.164 93.6336 192.743 99.9533L165.782 138.1C157.285 150.117 148.69 162.063 139.997 173.939C136.781 178.245 133.053 184.202 128.98 187.742C128.171 188.445 126.781 187.459 126.034 186.959C124.719 186.238 123.411 185.394 122.136 184.596C123.499 183.811 124.339 183.219 125.214 181.878C127.065 179.042 128.761 176.08 130.461 173.154C132.985 168.874 135.468 164.57 137.911 160.244L158.249 124.366C165.136 112.2 171.932 99.9823 178.635 87.714L185.459 75.2846C186.942 72.5394 188.452 69.7333 189.712 66.8761C190.235 65.6894 190.077 64.8296 189.594 63.6493C189.212 63.2526 188.757 62.9488 188.312 62.6216C188.617 62.6808 189.624 63.1159 189.971 63.2578C189.335 62.7344 188.897 62.3307 188.311 61.751Z" fill="#65CC99"/>
<path d="M188.311 61.751C189.718 62.5015 191.295 63.7515 192.599 64.7229C192.782 67.8458 191.189 69.1311 190.027 71.8486L191.78 72.8409C189.538 76.0768 187.847 78.6608 188.559 82.9005C189.051 85.8286 190.722 87.9697 192.896 89.8961C182.51 104.836 148.33 153.204 135.244 170.319C135.09 170.522 134.984 169.93 134.122 171.274C131.491 175.38 129.343 179.909 126.522 183.855C126.147 184.379 125.068 185.279 124.552 185.796C124.695 186.151 125.539 186.523 126.034 186.959C124.719 186.238 123.411 185.394 122.136 184.596C123.499 183.811 124.339 183.219 125.214 181.878C127.065 179.042 128.761 176.08 130.461 173.154C132.985 168.874 135.468 164.57 137.911 160.244L158.249 124.366C165.136 112.2 171.932 99.9823 178.635 87.714L185.459 75.2846C186.942 72.5394 188.452 69.7333 189.712 66.8761C190.235 65.6894 190.077 64.8296 189.594 63.6493C189.212 63.2526 188.757 62.9488 188.312 62.6216C188.617 62.6808 189.624 63.1159 189.971 63.2578C189.335 62.7344 188.897 62.3307 188.311 61.751Z" fill="#309562"/>
<path d="M164.591 117.575C164.778 117.193 164.861 116.901 165.216 116.69C165.336 117.439 164.911 118.579 164.731 119.327C163.727 123.496 161.317 126.94 158.529 130.123L156.364 132.169C157.077 130.694 158.285 128.708 159.111 127.242L164.591 117.575Z" fill="#65CC99"/>
<path d="M85.9286 164.067C85.9639 164.062 85.999 164.056 86.0345 164.053C88.319 163.823 109.881 173.286 113.469 174.779C115.498 175.623 118.871 177.456 120.964 177.59C121.521 177.625 121.948 177.323 122.302 176.924C124.53 174.411 125.471 169.805 127.264 166.821C144.429 138.256 160.149 108.852 176.5 79.8207C170.359 75.5316 169.358 69.2531 173.639 63.0522C172.637 62.5274 171.627 62.0175 170.61 61.5228C171.422 59.377 172.421 56.9129 173.151 54.7649C178.143 57.4498 184.86 60.7771 189.589 63.6671C190.072 64.8474 190.23 65.7073 189.707 66.8939C188.447 69.7512 186.936 72.5572 185.454 75.3024L178.63 87.7318C171.927 100 165.131 112.218 158.243 124.383L137.906 160.262C135.463 164.588 132.979 168.892 130.456 173.172C128.755 176.098 127.06 179.059 125.209 181.896C124.334 183.237 123.494 183.829 122.131 184.614C121.32 184.28 118.526 182.634 117.534 182.077L106.927 176.066C102.99 173.831 99.0346 171.631 95.0597 169.465C92.2565 167.922 88.4845 165.92 85.9286 164.067Z" fill="#65CC99"/>
<path d="M151.593 108.318C151.691 108.12 151.694 108.165 151.89 108.011C152.144 108.52 151.809 110.872 151.74 111.553C151.15 117.442 148.256 121.153 144.884 125.701C144.736 125.943 144.711 125.921 144.47 126.088C144.295 125.364 150.725 110.31 151.593 108.318Z" fill="#65CC99"/>
<path d="M110.954 44.1651C111.17 43.6833 111.622 43.8799 112.064 43.9807C117.995 45.3328 124.108 42.3818 126.209 36.5194C135.408 40.3905 146.627 44.793 156.026 48.2365C154.854 51.4262 153.748 54.3074 154.84 57.7148C155.949 61.1744 157.991 62.9442 161.049 64.5926C159.584 67.838 158.103 71.7889 156.76 75.1172L148.212 96.3446L123.993 154.37L123.262 156.244C117.231 153.758 111.184 156.729 108.537 162.481C101.761 159.524 94.7901 156.849 87.9812 153.953C85.1225 152.737 81.883 151.345 78.9475 150.401C81.5183 143.901 78.9888 138.676 73.1145 135.399C76.7014 126.758 80.3579 118.145 84.0836 109.563C93.2795 87.8624 102.237 66.0619 110.954 44.1651Z" fill="#329966"/>
<path d="M97.75 87.1831C104.439 76.3566 118.64 73.0075 129.462 79.7045C140.283 86.4017 143.621 100.606 136.915 111.422C130.217 122.226 116.032 125.559 105.223 118.87C94.4136 112.18 91.0689 97.9975 97.75 87.1831Z" fill="#65CC99"/>
<path d="M102.431 91.603C102.503 91.4964 102.674 91.4015 102.79 91.3219C103.745 91.2816 104.806 91.8308 105.644 92.2535C108.647 88.9041 111.028 87.9268 115.476 88.9362C115.045 90.5108 114.704 91.2258 114.012 92.7401C113.116 92.8676 110.668 93.1827 110.086 93.888C106.102 98.7198 110.613 103.87 114.973 97.4788C116.699 94.9484 120.314 91.5826 123.839 91.9545C130.267 92.6323 131.031 97.4708 130.768 102.746C132.016 103.166 132.773 103.486 133.969 104.041C133.524 105.073 132.654 107.322 131.93 108.066C131.083 107.794 129.958 107.25 129.123 106.876C127.268 109.295 125.191 111.202 121.846 111.063C121.214 111.037 119.93 110.926 119.501 110.431C119.277 109.502 120.532 107.047 120.971 106.059C122.127 106.08 123.976 106.143 124.945 105.554C126.823 104.424 127.561 100.634 126.397 98.8655C123.728 94.775 119.676 98.5657 117.266 101.32C113.142 106.032 106.966 108.855 103.987 101.035C103.531 99.8379 103.699 97.899 104.031 96.5741C102.809 96.1235 102.087 95.8105 100.923 95.2253C101.425 93.86 101.786 92.8986 102.431 91.603Z" fill="#65CC99"/>
<path d="M96.0081 135.922C96.7517 133.962 98.5036 132.563 100.579 132.271C102.655 131.979 104.725 132.841 105.98 134.52C107.236 136.199 107.477 138.428 106.61 140.336C105.327 143.16 102.035 144.456 99.1713 143.264C96.3079 142.072 94.9077 138.822 96.0081 135.922Z" fill="#65CC99"/>
<path d="M128.36 58.2223C129.68 55.3566 133.065 54.0927 135.941 55.3914C138.816 56.6903 140.105 60.0655 138.828 62.9504C137.537 65.866 134.118 67.1717 131.212 65.8592C128.306 64.5467 127.026 61.1182 128.36 58.2223Z" fill="#65CC99"/>
</g>
<g clip-path="url(#clip1_573_35050)">
<path d="M63.9123 183.578C62.5062 183.698 57.0558 184.382 56.2531 183.67C55.0869 182.635 53.9422 178.377 53.627 176.829C51.2843 165.33 49.5965 153.67 47.5934 142.105L39.0226 94.951L34.7997 71.822C34.0718 67.9271 31.6714 57.614 32.7973 54.2285C33.2716 52.8019 48.0322 50.2197 50.3633 49.7719L70.5655 45.8386L84.2516 43.0373C86.4909 42.5846 88.722 41.9543 91.0052 41.8689C92.8439 41.8001 93.3194 43.0112 94.0002 44.5245C96.6962 45.4962 108.735 45.0682 112.579 45.3969C114.118 45.2726 116.058 45.467 117.629 45.5767C120.22 45.6397 135.147 45.5263 136.306 46.8413C136.992 47.6203 136.967 50.7348 136.974 51.7759C137.026 59.2469 136.477 66.7597 136.179 74.2255L134.156 119.433C133.515 133.676 132.757 147.913 131.883 162.144C131.514 167.338 131.591 174.144 130.122 179.162C129.83 180.159 128.182 180.082 127.311 180.065C125.862 180.165 124.354 180.161 122.897 180.178C122.061 180.33 118.921 180.45 117.821 180.514L106.028 181.163C101.649 181.4 97.2728 181.676 92.8989 181.99C89.8063 182.199 85.6833 182.54 82.63 182.366C81.02 182.366 79.242 182.666 77.609 182.772C73.1066 183.067 68.4203 183.569 63.9123 183.578Z" fill="#65CC99"/>
<path d="M63.9141 183.585C66.262 183.056 68.444 182.346 70.8589 181.868C85.0414 179.058 99.316 176.712 113.525 174.039C116.639 173.454 116.951 172.571 116.594 169.46C116.141 165.517 115.41 161.582 114.761 157.665C113.388 149.49 111.959 141.324 110.472 133.17C106.61 110.948 102.548 88.7613 98.285 66.6129C97.3856 61.8057 96.4528 57.0047 95.4869 52.2103C95.1337 50.4805 94.0565 45.9224 94.0019 44.5316C96.698 45.5032 108.737 45.0752 112.58 45.4039C114.12 45.2796 116.059 45.474 117.631 45.5837C120.221 45.6467 135.149 45.5333 136.307 46.8483C136.994 47.6273 136.968 50.7419 136.976 51.7829C137.028 59.2539 136.479 66.7667 136.181 74.2325L134.157 119.44C133.517 133.683 132.759 147.92 131.885 162.151C131.516 167.345 131.593 174.151 130.124 179.169C129.832 180.166 128.184 180.089 127.313 180.072C125.863 180.172 124.355 180.168 122.898 180.185C122.063 180.337 118.923 180.457 117.823 180.521L106.03 181.17C101.651 181.407 97.2745 181.683 92.9006 181.997C89.808 182.206 85.6851 182.547 82.6318 182.373C81.0217 182.373 79.2437 182.673 77.6107 182.779C73.1083 183.074 68.4221 183.576 63.9141 183.585Z" fill="#2F9562"/>
<path d="M112.58 45.3982C114.12 45.2739 116.059 45.4683 117.63 45.578C120.221 45.6409 135.148 45.5276 136.307 46.8426C136.993 47.6216 136.968 50.7361 136.975 51.7771C137.027 59.2482 136.479 66.7609 136.18 74.2268L134.157 119.435C133.516 133.678 132.758 147.915 131.884 162.145C131.515 167.339 131.592 174.146 130.123 179.163C129.831 180.16 128.183 180.083 127.312 180.066C125.863 180.167 124.355 180.162 122.898 180.179C123.598 178.825 123.974 177.904 123.985 176.353C124.01 173.072 123.843 169.77 123.699 166.495C123.517 161.685 123.29 156.876 123.018 152.071L120.829 112.178C120.079 98.6553 119.228 85.1386 118.274 71.629L117.335 57.9246C117.107 54.9109 116.871 51.8326 116.403 48.8439C116.209 47.6026 115.63 46.9843 114.619 46.2746C114.1 46.1513 113.57 46.1414 113.035 46.1079C113.316 45.9962 114.364 45.824 114.721 45.7583C113.929 45.6641 113.361 45.5644 112.58 45.3982Z" fill="#65CC99"/>
<path d="M112.58 45.3982C114.12 45.2739 116.059 45.4683 117.63 45.578C119.413 48.0286 118.787 49.9098 119.261 52.7336L121.21 52.6251C121.075 56.4365 121.048 59.4283 123.847 62.5124C125.78 64.6424 128.263 65.5135 131.043 65.9469C130.391 83.5614 127.83 140.88 126.115 161.681C126.095 161.927 125.699 161.5 125.7 163.046C125.703 167.771 126.321 172.587 126.086 177.28C126.055 177.904 125.645 179.202 125.495 179.893C125.797 180.108 126.68 179.97 127.312 180.066C125.863 180.167 124.355 180.162 122.898 180.179C123.598 178.825 123.974 177.904 123.985 176.353C124.01 173.072 123.843 169.77 123.699 166.495C123.517 161.685 123.29 156.876 123.018 152.071L120.829 112.178C120.079 98.6553 119.228 85.1386 118.274 71.629L117.335 57.9246C117.107 54.9109 116.871 51.8326 116.403 48.8439C116.209 47.6026 115.63 46.9843 114.619 46.2746C114.1 46.1513 113.57 46.1414 113.035 46.1079C113.316 45.9962 114.364 45.824 114.721 45.7583C113.929 45.6641 113.361 45.5644 112.58 45.3982Z" fill="#309562"/>
<path d="M122.443 103.311C122.395 102.902 122.311 102.621 122.49 102.263C122.979 102.811 123.229 103.962 123.474 104.667C124.836 108.592 124.674 112.66 124.066 116.714L123.371 119.515C123.181 117.94 123.126 115.688 123.033 114.061L122.443 103.311Z" fill="#65CC99"/>
<path d="M82.6292 182.37C82.6555 182.348 82.6809 182.324 82.7079 182.303C84.4505 180.921 106.982 177.355 110.688 176.695C112.784 176.322 116.493 176.052 118.269 175.065C118.742 174.802 118.932 174.333 119.012 173.823C119.513 170.608 117.871 166.36 117.772 162.989C116.821 130.718 114.254 98.5205 112.396 66.2958C105.146 66.0115 101.045 61.4161 101.291 54.121C100.199 54.2173 99.1092 54.3298 98.0212 54.4585C97.5602 52.2845 97.0858 49.7526 96.5572 47.6193C102.032 47.1967 109.249 46.3951 114.617 46.2772C115.628 46.9869 116.207 47.6052 116.401 48.8464C116.869 51.8352 117.105 54.9134 117.333 57.9272L118.272 71.6315C119.226 85.1412 120.077 98.6579 120.827 112.18L123.016 152.073C123.288 156.879 123.515 161.687 123.697 166.497C123.841 169.773 124.008 173.074 123.983 176.355C123.972 177.906 123.596 178.828 122.896 180.182C122.06 180.334 118.92 180.453 117.82 180.518L106.027 181.167C101.648 181.404 97.272 181.68 92.8981 181.994C89.8055 182.203 85.6825 182.544 82.6292 182.37Z" fill="#65CC99"/>
<path d="M107.003 102.566C106.98 102.353 107.006 102.387 107.085 102.16C107.558 102.441 108.516 104.535 108.816 105.126C111.416 110.236 110.998 114.776 110.628 120.248C110.634 120.523 110.602 120.518 110.492 120.78C109.972 120.282 107.338 104.643 107.003 102.566Z" fill="#65CC99"/>
<path d="M40.3049 71.5135C40.229 71.0075 40.7002 70.9315 41.1132 70.7825C46.6561 68.782 50.0965 63.1774 48.7419 57.2988C58.2679 55.6418 69.7178 53.3619 79.1828 51.2518C79.8965 54.4654 80.5023 57.3931 83.1753 59.5999C85.8892 61.8405 88.4801 62.2151 91.836 61.959C92.3392 65.3717 93.1987 69.3679 93.8454 72.784L97.9819 94.5636L108.595 154.544L108.979 156.455C102.761 157.583 99.385 163.169 100.236 169.244C93.1652 170.378 86.0818 171.844 79.015 173.045C76.048 173.55 72.6787 174.11 69.7911 174.876C68.4865 168.231 63.6904 165.295 57.1864 165.696C55.5897 156.774 54.065 147.839 52.6123 138.892C48.7565 116.388 44.6538 93.9273 40.3049 71.5135Z" fill="#329966"/>
<path d="M52.0434 113.502C51.8323 101.175 61.6591 91.0145 73.9857 90.8131C86.3124 90.6119 96.4657 100.447 96.6572 112.773C96.8486 125.087 87.0272 135.226 74.7141 135.427C62.4013 135.628 52.2541 125.815 52.0434 113.502Z" fill="#65CC99"/>
<path d="M58.1716 114.66C58.1747 114.535 58.2639 114.369 58.3172 114.243C59.0747 113.711 60.2273 113.603 61.1312 113.51C61.8275 109.208 63.2578 107.165 67.4121 105.661C67.885 107.17 67.9804 107.932 68.209 109.528C67.5447 110.101 65.7139 111.639 65.6088 112.518C64.8882 118.542 71.2609 120.381 71.4716 112.889C71.555 109.923 72.7411 105.287 75.8099 103.746C81.4052 100.936 84.56 104.481 87.1058 108.919C88.3424 108.609 89.1267 108.474 90.3927 108.301C90.5697 109.375 91.0378 111.664 90.8364 112.649C90.0036 112.87 88.8017 113.015 87.9247 113.147C87.6782 116.09 86.9827 118.732 84.1829 120.369C83.6537 120.678 82.5483 121.259 81.9399 121.08C81.2712 120.44 81.0097 117.782 80.8511 116.746C81.8047 116.159 83.3451 115.243 83.8272 114.255C84.7666 112.351 83.3853 108.875 81.5111 108.043C77.1949 106.104 75.875 111.314 75.3505 114.821C74.4531 120.82 70.8953 126.353 64.3747 121.536C63.3767 120.799 62.4998 119.13 62.0771 117.876C60.8447 118.148 60.0925 118.271 58.8374 118.402C58.532 117.027 58.3237 116.054 58.1716 114.66Z" fill="#65CC99"/>
<path d="M76.1257 154.157C75.7066 152.171 76.4029 150.113 77.9424 148.789C79.4822 147.465 81.6207 147.085 83.5224 147.797C85.4243 148.509 86.7873 150.2 87.0791 152.209C87.5107 155.183 85.5041 157.962 82.5458 158.488C79.5876 159.014 76.7457 157.097 76.1257 154.157Z" fill="#65CC99"/>
<path d="M61.8491 73.8742C61.4261 70.8472 63.5244 68.0458 66.5483 67.6002C69.5723 67.1549 72.3892 69.2322 72.8572 72.2527C73.3301 75.3052 71.2258 78.1586 68.17 78.6086C65.1141 79.0589 62.2764 76.9335 61.8491 73.8742Z" fill="#65CC99"/>
</g>
<path d="M21.6328 95.9287H222.908C229.142 95.9287 234.195 100.982 234.195 107.215V188.102H21.6328V95.9287Z" fill="url(#paint0_linear_573_35050)"/>
<rect x="198.455" y="137.312" width="46.0865" height="31.9784" rx="5.64324" fill="url(#paint1_linear_573_35050)"/>
<rect x="206.92" y="145.78" width="15.0486" height="15.0486" rx="7.52432" fill="url(#paint2_linear_573_35050)"/>
<defs>
<linearGradient id="paint0_linear_573_35050" x1="127.914" y1="95.9287" x2="127.914" y2="188.102" gradientUnits="userSpaceOnUse">
<stop stop-color="#DFDFDF"/>
<stop offset="1" stop-color="#F8F8FA"/>
</linearGradient>
<linearGradient id="paint1_linear_573_35050" x1="244.542" y1="151.89" x2="198.455" y2="152.36" gradientUnits="userSpaceOnUse">
<stop stop-color="#EEEEEE"/>
<stop offset="1" stop-color="#D6D5D5"/>
</linearGradient>
<linearGradient id="paint2_linear_573_35050" x1="214.444" y1="145.78" x2="214.444" y2="160.829" gradientUnits="userSpaceOnUse">
<stop stop-color="#C4C4C4"/>
<stop offset="1" stop-color="#ABABAB"/>
</linearGradient>
<clipPath id="clip0_573_35050">
<rect width="149.996" height="149.996" fill="white" transform="translate(20.6914 123.976) rotate(-55.7434)"/>
</clipPath>
<clipPath id="clip1_573_35050">
<rect width="145.309" height="145.309" fill="white" transform="translate(8.46484 183.819) rotate(-88.4318)"/>
</clipPath>
</defs>
</svg>