<svg width="64" height="56" viewBox="0 0 64 56" fill="none" xmlns="http://www.w3.org/2000/svg">
<g clip-path="url(#clip0_29_112761)">
<path d="M-0.128906 0H0.14969C0.691957 0.449875 2.58211 1.5458 3.29129 1.95333C3.99671 1.61938 4.70335 1.20794 5.38452 0.823284C5.75261 0.615458 6.50102 0.240731 6.80387 0H7.04608C7.78083 0.414953 9.91282 1.6727 10.5843 1.91607C10.8912 1.83415 13.8033 0.230636 14.1278 0H14.3969C15.0568 0.454502 17.184 1.60392 17.894 1.94095C18.4412 1.69565 20.9877 0.326213 21.3993 0H21.7211C22.3086 0.381962 24.682 1.78521 25.2916 1.90926C25.777 1.69289 28.4043 0.289573 28.7391 0H28.9798C29.7732 0.455224 31.8428 1.67997 32.6006 1.95074C33.1185 1.61723 35.4017 0.272995 35.6811 0H35.9116C35.837 3.42405 35.9061 7.14192 35.9059 10.5881L35.9048 31.4298L35.9049 45.809C35.905 48.284 35.8231 51.3706 35.9495 53.7954L-0.123738 53.7922L-0.128906 0Z" fill="#EBEAEA"/>
<path d="M5.7046 28.9722C6.82773 28.9273 8.11767 28.9557 9.25035 28.9556L15.4189 28.9532C17.031 28.9523 19.6028 28.8868 21.2428 29.0301C22.0123 29.0973 22.2396 30.326 21.1801 30.8831C20.6066 30.932 19.6928 30.9059 19.098 30.9057L15.4045 30.9066C12.3137 30.9078 9.22351 30.9154 6.13201 30.9C5.54724 30.9287 5.20098 30.775 5.02042 30.1775C4.85352 29.6253 5.18047 29.1376 5.7046 28.9722Z" fill="#A49FA5"/>
<path d="M5.89585 13.9926C8.37938 13.9085 11.0562 14.0233 13.5624 13.9815C15.7801 13.9836 17.8739 13.9756 20.1007 13.9883C21.1666 13.9943 21.6453 14.3921 21.2025 15.5663C21.1225 15.7783 20.7752 15.8706 20.5714 15.922C19.2926 15.9609 17.9763 15.9307 16.6931 15.9311C13.1073 15.9319 9.52102 15.9386 5.9354 15.9299C5.24985 15.9283 5.14096 15.5272 4.94531 14.9737C5.10315 14.3552 5.22544 14.0676 5.89585 13.9926Z" fill="#A49FA5"/>
<path d="M10.6195 45.883C11.9582 45.8368 24.8368 45.7903 25.2376 45.9232C25.6431 46.0575 25.8027 46.4856 25.972 46.8373C25.766 47.3032 25.6759 47.5412 25.2299 47.7781C24.2756 47.9098 10.7867 47.8488 10.5341 47.7511C10.1495 47.6025 9.98701 47.1602 9.82812 46.8148C10.0701 46.3628 10.1674 46.1144 10.6195 45.883Z" fill="#6F6671"/>
<path d="M5.61305 9.0233C7.09246 8.96186 16.8975 8.91472 17.3743 9.0996C17.58 9.18155 17.7448 9.34192 17.8322 9.54537C18.0857 10.1484 17.7999 10.6632 17.2206 10.898C16.4216 10.9791 15.5361 10.9575 14.7282 10.954C11.8069 10.9412 8.88248 10.987 5.96205 10.9368C5.23331 10.9242 5.13275 10.5781 4.96094 9.96645C5.08824 9.45398 5.12826 9.25744 5.61305 9.0233Z" fill="#A49FA5"/>
<path d="M5.74819 38.935C7.38733 38.8407 9.47572 38.9637 11.1706 38.9211C13.0554 38.9225 14.9401 38.9105 16.8245 38.9336C18.2344 38.9508 18.2512 40.5617 17.0827 40.8556C16.0752 40.9034 5.87623 40.9654 5.49069 40.7878C5.27052 40.6864 5.10335 40.3802 5.03179 40.1615C4.93033 39.8515 5.00142 39.621 5.15282 39.3362C5.28265 39.092 5.49617 39.011 5.74819 38.935Z" fill="#A49FA5"/>
<path d="M5.98126 23.9668C9.54521 23.8613 13.2182 24.0186 16.7932 23.9765C17.7918 23.9647 18.143 24.6624 17.7262 25.5175C17.6014 25.7735 17.2621 25.8432 17.0169 25.8935C13.3467 26.0205 9.57184 25.8591 5.89536 25.8909C4.82606 25.9001 4.49188 24.0827 5.98126 23.9668Z" fill="#A49FA5"/>
<path d="M6.08125 33.9297C7.61192 33.8861 9.28677 33.9439 10.8335 33.919C11.6311 33.9062 13.6977 33.8747 14.3701 34.0062C14.389 34.0202 14.4075 34.0347 14.4257 34.0495C14.6968 34.271 14.8445 34.4743 14.8727 34.8335C14.8956 35.1012 14.8059 35.3663 14.6253 35.5653C14.3283 35.8907 14.1664 35.8698 13.758 35.8831C12.22 35.9053 10.7175 35.8802 9.13036 35.8884C8.43416 35.892 6.07408 36.0066 5.37509 35.7238C5.04128 35.5887 4.80746 34.5514 5.22116 34.24C5.575 33.9736 5.58814 33.9748 6.08125 33.9297Z" fill="#A49FA5"/>
<path d="M14.2362 50.862C15.8419 50.8485 17.4475 50.8437 19.0531 50.8477C19.9638 50.8474 20.8777 50.8287 21.7875 50.8755C22.6008 50.9282 22.9373 51.2084 22.844 52.039C22.7684 52.7123 22.2169 52.7867 21.6308 52.7983L16.4466 52.7993C15.5691 52.7993 14.6707 52.8262 13.7965 52.7745C12.9876 52.7266 12.5992 51.7678 13.1814 51.1694C13.492 50.8502 13.8104 50.8877 14.2362 50.862Z" fill="#A49FA5"/>
<path d="M5.86454 18.9971C7.52346 18.9481 9.25235 19.005 10.9221 18.9836C11.9739 18.9939 12.9722 18.9581 14.0263 19.0052C14.8814 19.0435 15.0592 19.9883 14.655 20.6015C14.5039 20.8308 14.2277 20.8835 13.9723 20.9176C13.7807 20.9289 13.5855 20.9267 13.3933 20.9259C10.9595 20.917 8.52415 20.9561 6.09077 20.9214C5.25082 20.9095 5.16259 20.649 4.96094 19.93C5.11513 19.2988 5.20573 19.0999 5.86454 18.9971Z" fill="#A49FA5"/>
<path d="M26.9252 33.923C27.6543 33.9124 29.4662 33.7802 29.9753 34.1369C30.674 34.6266 30.4569 35.6724 29.4502 35.8715C28.7785 35.8948 26.6722 36.0133 26.2873 35.6677C25.5816 35.0339 25.8462 34.0923 26.9252 33.923Z" fill="#6F6671"/>
<path d="M26.8909 13.9916C28.0789 13.9726 31.2506 13.5144 30.141 15.6441C29.9009 15.7931 29.8037 15.8272 29.535 15.9245C28.3597 15.9549 24.8431 16.3825 26.1759 14.2606C26.3123 14.0434 26.6718 14.0141 26.8909 13.9916Z" fill="#6F6671"/>
<path d="M26.6952 28.9696C27.2612 28.9429 27.8306 28.9627 28.405 28.9428C29.2746 28.9128 30.833 28.9679 30.2791 30.2888C30.1041 30.7057 29.9551 30.7344 29.5518 30.8905C28.9847 30.9203 27.7968 30.8576 27.3238 30.9139C25.6501 31.1131 25.4447 29.2383 26.6952 28.9696Z" fill="#6F6671"/>
<path d="M26.7604 38.9395C26.9343 38.9326 27.1478 38.9251 27.3207 38.9306C28.4803 38.9672 31.1465 38.4798 30.142 40.5875C29.8587 40.7521 29.8027 40.7975 29.4807 40.8678C29.2362 40.8712 27.6988 40.8641 27.5787 40.8904C25.821 41.275 25.2522 39.1981 26.7604 38.9395Z" fill="#6F6671"/>
<path d="M27.004 23.9662C27.7211 23.9581 29.52 23.8323 30.0035 24.1805C30.7128 24.6915 30.4194 25.7542 29.4096 25.9016C28.7597 25.9095 28.1095 25.9149 27.4597 25.9208C26.8032 25.9269 25.9863 25.9014 25.9208 25.0623C25.8991 24.7601 26.0018 24.4621 26.2049 24.2373C26.4432 23.9761 26.6736 23.9838 27.004 23.9662Z" fill="#6F6671"/>
<path d="M26.5387 9.03039C27.3931 8.95925 28.3084 9.01315 29.1658 8.99348C30.4086 8.965 30.9282 10.3559 29.6676 10.9019C28.8052 10.9881 27.9778 10.9255 27.1439 10.9563C25.7655 11.0071 25.5015 9.55731 26.5387 9.03039Z" fill="#6F6671"/>
<path d="M26.7123 19C27.2452 18.9712 27.8099 18.9951 28.342 18.9754C29.3027 18.9398 30.913 18.9978 30.2337 20.4271C30.0853 20.7393 29.9067 20.7728 29.5981 20.8895C29.0144 20.9788 26.7807 21.0211 26.2961 20.7463C25.7334 20.4271 25.7291 19.1952 26.7123 19Z" fill="#6F6671"/>
<rect y="26" width="48" height="28" fill="url(#paint0_linear_29_112761)"/>
<path d="M19.6562 30.4641C19.6562 29.224 20.6615 28.2188 21.9016 28.2188H57.0783C58.3183 28.2188 59.3236 29.224 59.3236 30.4641V53.1044H19.6562V30.4641Z" fill="#D6D5D5"/>
<g clip-path="url(#clip1_29_112761)">
<path d="M29.0775 44.7784C28.8211 44.6431 27.8033 44.1569 27.7435 43.9448C27.6567 43.6366 27.9312 42.7737 28.0483 42.4712C28.9188 40.224 29.9202 38.0216 30.8567 35.8006L34.605 26.7004L36.4403 22.2347C36.7465 21.4808 37.4754 19.4321 38.0455 18.9719C38.2857 18.7779 41.1231 19.9687 41.5757 20.1498L45.5035 21.7106L48.1796 22.7443C48.6168 22.9144 49.0723 23.0529 49.4764 23.2914C49.8018 23.4834 49.7497 23.7455 49.6995 24.0825C50.0577 24.5495 52.1858 25.8107 52.8137 26.2938C53.0936 26.4431 53.4072 26.6917 53.6666 26.885C54.1074 27.1832 56.6998 28.8191 56.7542 29.1749C56.7865 29.3856 56.4367 29.9211 56.3225 30.1019C55.5029 31.3989 54.5749 32.6365 53.6953 33.8937L48.3317 41.4826C46.6414 43.8732 44.9314 46.2498 43.2021 48.6123C42.5623 49.469 41.8207 50.6539 41.0103 51.3582C40.8493 51.4981 40.573 51.302 40.4244 51.2025C40.1627 51.0592 39.9026 50.8911 39.6489 50.7325C39.4876 50.666 38.9317 50.3385 38.7343 50.2277L36.6242 49.0319C35.8411 48.5873 35.0541 48.1495 34.2634 47.7187C33.7057 47.4118 32.9553 47.0135 32.4468 46.6449C32.1686 46.4663 31.8281 46.3208 31.534 46.1582C30.7231 45.7098 29.8576 45.2768 29.0775 44.7784Z" fill="#65CC99"/>
<path d="M29.0762 44.7734C29.5406 44.9425 29.9965 45.0617 30.4669 45.2469C33.2297 46.3342 35.957 47.5119 38.7092 48.6258C39.3124 48.87 39.4641 48.7519 39.7474 48.1747C40.1065 47.4431 40.4167 46.6819 40.7388 45.9328C41.4082 44.3677 42.0667 42.798 42.7143 41.2237C44.5114 36.9547 46.2698 32.6697 47.9895 28.369C48.3672 27.4384 48.7384 26.5052 49.1032 25.5694C49.234 25.2313 49.5534 24.324 49.6982 24.0776C50.0564 24.5445 52.1845 25.8058 52.8124 26.2888C53.0923 26.4381 53.4059 26.6868 53.6653 26.8801C54.1061 27.1782 56.6985 28.8142 56.753 29.1699C56.7852 29.3807 56.4354 29.9162 56.3212 30.0969C55.5016 31.3939 54.5736 32.6315 53.694 33.8887L48.3304 41.4777C46.6401 43.8682 44.9302 46.2448 43.2008 48.6073C42.561 49.464 41.8194 50.649 41.009 51.3533C40.848 51.4932 40.5717 51.2971 40.4231 51.1976C40.1614 51.0542 39.9013 50.8862 39.6476 50.7275C39.4863 50.6611 38.9304 50.3336 38.733 50.2228L36.6229 49.0269C35.8398 48.5823 35.0528 48.1446 34.2621 47.7138C33.7044 47.4069 32.954 47.0086 32.4455 46.64C32.1673 46.4613 31.8268 46.3159 31.5327 46.1533C30.7219 45.7049 29.8563 45.2719 29.0762 44.7734Z" fill="#2F9562"/>
<path d="M52.8149 26.2893C53.0948 26.4386 53.4084 26.6873 53.6679 26.8805C54.1086 27.1787 56.7011 28.8146 56.7555 29.1704C56.7877 29.3812 56.4379 29.9167 56.3237 30.0974C55.5042 31.3944 54.5761 32.632 53.6965 33.8892L48.333 41.4782C46.6426 43.8687 44.9327 46.2453 43.2034 48.6078C42.5635 49.4645 41.8219 50.6495 41.0115 51.3538C40.8506 51.4937 40.5742 51.2976 40.4256 51.198C40.164 51.0547 39.9038 50.8867 39.6501 50.728C39.9213 50.5717 40.0884 50.4541 40.2624 50.1873C40.6306 49.623 40.968 49.0339 41.3063 48.4517C41.8083 47.6002 42.3023 46.7441 42.7884 45.8833L46.8343 38.7458C48.2045 36.3256 49.5564 33.895 50.8899 31.4544L52.2475 28.9817C52.5424 28.4355 52.843 27.8773 53.0936 27.3089C53.1977 27.0728 53.1662 26.9018 53.0702 26.6669C52.9941 26.588 52.9036 26.5276 52.8149 26.4625C52.8758 26.4743 53.0761 26.5608 53.1451 26.5891C53.0186 26.4849 52.9314 26.4046 52.8149 26.2893Z" fill="#65CC99"/>
<path d="M52.8149 26.2893C53.0948 26.4386 53.4084 26.6873 53.6679 26.8805C53.7042 27.5018 53.3874 27.7575 53.1561 28.2981L53.505 28.4955C53.059 29.1393 52.7225 29.6533 52.8641 30.4968C52.962 31.0793 53.2945 31.5052 53.7269 31.8885C51.6608 34.8605 44.861 44.4829 42.2578 47.8877C42.2271 47.928 42.206 47.8103 42.0346 48.0778C41.5111 48.8945 41.0839 49.7955 40.5227 50.5805C40.4481 50.6849 40.2333 50.8638 40.1307 50.9666C40.1591 51.0373 40.327 51.1113 40.4256 51.198C40.164 51.0547 39.9038 50.8867 39.6501 50.728C39.9213 50.5717 40.0884 50.4541 40.2624 50.1873C40.6306 49.623 40.968 49.0339 41.3063 48.4517C41.8083 47.6002 42.3023 46.7441 42.7884 45.8833L46.8343 38.7458C48.2045 36.3256 49.5564 33.895 50.8899 31.4544L52.2475 28.9817C52.5424 28.4355 52.843 27.8773 53.0936 27.3089C53.1977 27.0728 53.1662 26.9018 53.0702 26.6669C52.9941 26.588 52.9036 26.5276 52.8149 26.4625C52.8758 26.4743 53.0761 26.5608 53.1451 26.5891C53.0186 26.4849 52.9314 26.4046 52.8149 26.2893Z" fill="#309562"/>
<path d="M48.0957 37.3969C48.1328 37.321 48.1494 37.2629 48.2199 37.221C48.2439 37.3699 48.1593 37.5966 48.1235 37.7455C47.9237 38.575 47.4444 39.26 46.8897 39.8932L46.4589 40.3004C46.6008 40.0069 46.8412 39.6117 47.0054 39.3202L48.0957 37.3969Z" fill="#65CC99"/>
<path d="M32.4466 46.6387C32.4537 46.6377 32.4607 46.6365 32.4677 46.6357C32.9222 46.5901 37.2118 48.4727 37.9256 48.7697C38.3291 48.9376 39.0001 49.3023 39.4165 49.3288C39.5275 49.3359 39.6124 49.2758 39.6827 49.1964C40.1259 48.6963 40.3132 47.7802 40.6699 47.1865C44.0846 41.5037 47.2119 35.6542 50.4648 29.8787C49.2432 29.0255 49.0441 27.7764 49.8956 26.5428C49.6962 26.4384 49.4954 26.337 49.2931 26.2386C49.4545 25.8117 49.6533 25.3215 49.7986 24.8942C50.7916 25.4283 52.128 26.0902 53.0687 26.6652C53.1648 26.9 53.1963 27.071 53.0922 27.3071C52.8415 27.8755 52.541 28.4338 52.2461 28.9799L50.8885 31.4526C49.555 33.8932 48.2031 36.3238 46.8328 38.744L42.7869 45.8816C42.3009 46.7423 41.8068 47.5984 41.3048 48.4499C40.9666 49.0321 40.6292 49.6212 40.261 50.1855C40.087 50.4523 39.9199 50.57 39.6487 50.7262C39.4874 50.6598 38.9315 50.3323 38.7341 50.2215L36.624 49.0256C35.8409 48.581 35.054 48.1433 34.2632 47.7125C33.7055 47.4056 32.9551 47.0073 32.4466 46.6387Z" fill="#65CC99"/>
<path d="M45.5097 35.5521C45.5293 35.5128 45.5299 35.5215 45.5688 35.491C45.6194 35.5922 45.5527 36.0602 45.5391 36.1957C45.4217 37.3671 44.8459 38.1055 44.1751 39.0102C44.1456 39.0583 44.1406 39.054 44.0926 39.0871C44.0579 38.9432 45.3372 35.9483 45.5097 35.5521Z" fill="#65CC99"/>
<path d="M37.4245 22.7885C37.4675 22.6927 37.5574 22.7318 37.6453 22.7518C38.8251 23.0208 40.0413 22.4337 40.4592 21.2675C42.2894 22.0376 44.5211 22.9134 46.391 23.5985C46.1579 24.233 45.9379 24.8062 46.1551 25.4841C46.3757 26.1723 46.7819 26.5244 47.3903 26.8523C47.0988 27.498 46.8042 28.284 46.5371 28.9461L44.8365 33.1691L40.0185 44.7126L39.873 45.0854C38.6732 44.5909 37.4702 45.1818 36.9436 46.3262C35.5957 45.738 34.2088 45.2058 32.8543 44.6296C32.2856 44.3877 31.6411 44.1109 31.0571 43.9229C31.5686 42.6299 31.0653 41.5904 29.8967 40.9385C30.6103 39.2194 31.3377 37.506 32.0789 35.7986C33.9083 31.4816 35.6903 27.1447 37.4245 22.7885Z" fill="#329966"/>
<path d="M34.7982 31.3452C36.1288 29.1914 38.9541 28.5251 41.1068 29.8574C43.2596 31.1897 43.9236 34.0155 42.5896 36.1672C41.2571 38.3165 38.4351 38.9797 36.2847 37.6489C34.1344 36.318 33.469 33.4966 34.7982 31.3452Z" fill="#65CC99"/>
<path d="M35.7302 32.2284C35.7446 32.2072 35.7785 32.1883 35.8016 32.1725C35.9916 32.1645 36.2027 32.2737 36.3693 32.3578C36.9668 31.6915 37.4406 31.4971 38.3254 31.6979C38.2397 32.0111 38.1717 32.1534 38.0342 32.4546C37.8558 32.48 37.3689 32.5427 37.2532 32.683C36.4606 33.6442 37.358 34.6689 38.2253 33.3973C38.5687 32.8939 39.2878 32.2244 39.9891 32.2983C41.2678 32.4332 41.4199 33.3957 41.3676 34.4452C41.6158 34.5287 41.7663 34.5923 42.0043 34.7029C41.9158 34.9081 41.7429 35.3556 41.5988 35.5036C41.4303 35.4494 41.2065 35.3412 41.0403 35.2667C40.6713 35.7481 40.2582 36.1274 39.5927 36.0998C39.4669 36.0946 39.2114 36.0725 39.1261 35.9741C39.0816 35.7892 39.3312 35.3008 39.4186 35.1042C39.6485 35.1085 40.0164 35.1211 40.2092 35.0038C40.5827 34.7789 40.7295 34.025 40.4979 33.6732C39.967 32.8594 39.161 33.6136 38.6814 34.1615C37.861 35.0988 36.6324 35.6605 36.0397 34.1047C35.949 33.8667 35.9826 33.4809 36.0486 33.2173C35.8054 33.1277 35.6618 33.0654 35.4303 32.949C35.53 32.6774 35.6019 32.4862 35.7302 32.2284Z" fill="#65CC99"/>
<path d="M34.4512 41.0431C34.5991 40.6532 34.9476 40.3748 35.3606 40.3168C35.7735 40.2587 36.1853 40.4301 36.435 40.7641C36.6848 41.0981 36.7328 41.5415 36.5603 41.9212C36.3051 42.483 35.6501 42.7408 35.0805 42.5037C34.5108 42.2665 34.2323 41.62 34.4512 41.0431Z" fill="#65CC99"/>
<path d="M40.8879 25.5879C41.1505 25.0178 41.8239 24.7663 42.3959 25.0247C42.9679 25.2831 43.2244 25.9545 42.9703 26.5285C42.7135 27.1085 42.0333 27.3683 41.4553 27.1071C40.8772 26.846 40.6225 26.164 40.8879 25.5879Z" fill="#65CC99"/>
</g>
<g clip-path="url(#clip2_29_112761)">
<path d="M28.0658 50.5216C27.786 50.5455 26.7017 50.6816 26.542 50.5399C26.31 50.3341 26.0823 49.4869 26.0196 49.179C25.5536 46.8913 25.2178 44.5718 24.8193 42.271L23.1142 32.8903L22.2741 28.289C22.1293 27.5142 21.6518 25.4625 21.8758 24.789C21.9701 24.5052 24.9066 23.9915 25.3703 23.9024L29.3893 23.1199L32.112 22.5626C32.5575 22.4726 33.0014 22.3472 33.4556 22.3302C33.8214 22.3165 33.916 22.5574 34.0514 22.8585C34.5878 23.0518 36.9827 22.9667 37.7474 23.032C38.0537 23.0073 38.4395 23.046 38.7521 23.0678C39.2675 23.0803 42.2371 23.0578 42.4676 23.3194C42.6042 23.4744 42.5991 24.094 42.6006 24.3011C42.6109 25.7874 42.5018 27.2819 42.4424 28.7672L42.0399 37.7608C41.9124 40.5942 41.7617 43.4266 41.5878 46.2575C41.5143 47.2908 41.5297 48.6449 41.2374 49.6431C41.1794 49.8414 40.8515 49.8261 40.6782 49.8227C40.3899 49.8427 40.0899 49.8419 39.8 49.8452C39.6338 49.8754 39.0092 49.8993 38.7903 49.9122L36.4442 50.0412C35.5731 50.0884 34.7025 50.1432 33.8323 50.2057C33.2171 50.2473 32.3969 50.3151 31.7894 50.2806C31.4692 50.2805 31.1154 50.3401 30.7906 50.3614C29.8949 50.42 28.9626 50.5198 28.0658 50.5216Z" fill="#65CC99"/>
<path d="M28.0664 50.5234C28.5335 50.4183 28.9676 50.277 29.448 50.1818C32.2694 49.6229 35.1092 49.1561 37.936 48.6244C38.5555 48.5079 38.6175 48.3323 38.5464 47.7134C38.4564 46.9291 38.311 46.1461 38.1817 45.3669C37.9087 43.7406 37.6243 42.1162 37.3287 40.4938C36.5604 36.0731 35.7522 31.6593 34.9041 27.2532C34.7252 26.2968 34.5396 25.3417 34.3475 24.3879C34.2772 24.0438 34.0629 23.137 34.0521 22.8603C34.5884 23.0536 36.9834 22.9685 37.748 23.0339C38.0543 23.0091 38.4401 23.0478 38.7528 23.0696C39.2681 23.0822 42.2377 23.0596 42.4682 23.3212C42.6048 23.4762 42.5998 24.0958 42.6012 24.3029C42.6116 25.7892 42.5024 27.2837 42.443 28.769L42.0405 37.7626C41.9131 40.5961 41.7623 43.4284 41.5884 46.2594C41.515 47.2926 41.5303 48.6467 41.2381 49.645C41.18 49.8432 40.8521 49.8279 40.6789 49.8245C40.3906 49.8445 40.0905 49.8437 39.8007 49.847C39.6344 49.8772 39.0098 49.9011 38.7909 49.914L36.4448 50.043C35.5737 50.0902 34.7031 50.1451 33.833 50.2075C33.2177 50.2491 32.3975 50.3169 31.7901 50.2824C31.4698 50.2823 31.1161 50.3419 30.7912 50.3632C29.8955 50.4219 28.9632 50.5217 28.0664 50.5234Z" fill="#2F9562"/>
<path d="M37.7476 23.0287C38.0539 23.004 38.4397 23.0426 38.7524 23.0645C39.2677 23.077 42.2373 23.0544 42.4678 23.316C42.6044 23.471 42.5993 24.0906 42.6008 24.2977C42.6112 25.784 42.502 27.2786 42.4426 28.7638L42.0401 37.7574C41.9126 40.5909 41.7619 43.4232 41.588 46.2542C41.5146 47.2874 41.5299 48.6416 41.2377 49.6398C41.1796 49.8381 40.8517 49.8228 40.6784 49.8194C40.3901 49.8394 40.0901 49.8385 39.8003 49.8419C39.9396 49.5726 40.0143 49.3892 40.0166 49.0807C40.0215 48.4279 39.9884 47.7711 39.9596 47.1195C39.9234 46.1626 39.8783 45.2061 39.8242 44.25L39.3886 36.3138C39.2395 33.6236 39.0701 30.9346 38.8804 28.247L38.6936 25.5207C38.6483 24.9211 38.6013 24.3088 38.5082 23.7142C38.4696 23.4672 38.3544 23.3442 38.1533 23.2031C38.05 23.1785 37.9446 23.1765 37.8382 23.1699C37.894 23.1477 38.1026 23.1134 38.1737 23.1003C38.0161 23.0816 37.9029 23.0618 37.7476 23.0287Z" fill="#65CC99"/>
<path d="M37.7476 23.0287C38.0539 23.004 38.4397 23.0426 38.7524 23.0645C39.107 23.552 38.9825 23.9262 39.0768 24.488L39.4645 24.4664C39.4377 25.2246 39.4322 25.8198 39.9891 26.4334C40.3736 26.8571 40.8676 27.0304 41.4206 27.1166C41.291 30.6208 40.7814 42.0238 40.4404 46.1618C40.4364 46.2107 40.3576 46.1258 40.3578 46.4335C40.3583 47.3734 40.4813 48.3314 40.4345 49.2651C40.4283 49.3892 40.3468 49.6474 40.3169 49.785C40.377 49.8277 40.5527 49.8002 40.6784 49.8194C40.3901 49.8394 40.0901 49.8385 39.8003 49.8419C39.9396 49.5726 40.0143 49.3892 40.0166 49.0807C40.0215 48.4279 39.9884 47.7711 39.9596 47.1195C39.9234 46.1626 39.8783 45.2061 39.8242 44.25L39.3886 36.3138C39.2395 33.6236 39.0701 30.9346 38.8804 28.247L38.6936 25.5207C38.6483 24.9211 38.6013 24.3088 38.5082 23.7142C38.4696 23.4672 38.3544 23.3442 38.1533 23.2031C38.05 23.1785 37.9446 23.1765 37.8382 23.1699C37.894 23.1477 38.1026 23.1134 38.1737 23.1003C38.0161 23.0816 37.9029 23.0618 37.7476 23.0287Z" fill="#309562"/>
<path d="M39.7091 34.5577C39.6997 34.4764 39.6828 34.4204 39.7184 34.3493C39.8158 34.4581 39.8655 34.6873 39.9142 34.8273C40.1853 35.6082 40.1529 36.4175 40.0319 37.224L39.8938 37.7813C39.8559 37.4679 39.8451 37.0199 39.8265 36.6962L39.7091 34.5577Z" fill="#65CC99"/>
<path d="M31.7911 50.2868C31.7963 50.2823 31.8014 50.2776 31.8067 50.2734C32.1534 49.9984 36.6358 49.289 37.3731 49.1577C37.7899 49.0835 38.5278 49.0297 38.8812 48.8335C38.9754 48.7812 39.0132 48.6878 39.029 48.5863C39.1287 47.9467 38.802 47.1017 38.7823 46.4311C38.5932 40.0112 38.0825 33.6058 37.7129 27.195C36.2705 27.1385 35.4547 26.2243 35.5035 24.773C35.2864 24.7922 35.0696 24.8145 34.8531 24.8401C34.7614 24.4076 34.667 23.904 34.5619 23.4796C35.651 23.3955 37.0869 23.236 38.1547 23.2126C38.3559 23.3537 38.471 23.4767 38.5097 23.7237C38.6027 24.3183 38.6497 24.9306 38.695 25.5302L38.8818 28.2565C39.0716 30.9441 39.2409 33.6331 39.39 36.3233L39.8256 44.2595C39.8797 45.2156 39.9248 46.1721 39.961 47.129C39.9898 47.7806 40.0229 48.4374 40.018 49.0902C40.0157 49.3987 39.941 49.5821 39.8017 49.8514C39.6354 49.8816 39.0108 49.9054 38.7919 49.9183L36.4458 50.0473C35.5747 50.0946 34.7041 50.1494 33.834 50.2119C33.2187 50.2534 32.3985 50.3213 31.7911 50.2868Z" fill="#65CC99"/>
<path d="M36.638 34.406C36.6334 34.3637 36.6385 34.3705 36.6542 34.3253C36.7484 34.3813 36.9389 34.7978 36.9987 34.9153C37.5159 35.9318 37.4327 36.8351 37.3591 37.9237C37.3603 37.9783 37.3539 37.9775 37.3321 38.0296C37.2285 37.9304 36.7046 34.8193 36.638 34.406Z" fill="#65CC99"/>
<path d="M23.3709 28.2304C23.3558 28.1297 23.4495 28.1146 23.5317 28.085C24.6344 27.687 25.3188 26.572 25.0493 25.4025C26.9444 25.0729 29.2223 24.6193 31.1052 24.1995C31.2472 24.8389 31.3677 25.4213 31.8995 25.8603C32.4394 26.3061 32.9548 26.3806 33.6224 26.3296C33.7225 27.0085 33.8935 27.8035 34.0222 28.4831L34.8451 32.8159L36.9563 44.7484L37.0328 45.1285C35.7958 45.353 35.1242 46.4642 35.2936 47.6728C33.8868 47.8984 32.4777 48.1901 31.0718 48.429C30.4816 48.5293 29.8113 48.6408 29.2368 48.7931C28.9773 47.4713 28.0232 46.8871 26.7293 46.9669C26.4116 45.192 26.1083 43.4145 25.8193 41.6346C25.0522 37.1577 24.236 32.6894 23.3709 28.2304Z" fill="#329966"/>
<path d="M25.7045 36.581C25.6625 34.1288 27.6175 32.1074 30.0697 32.0673C32.522 32.0273 34.5418 33.9838 34.5799 36.4361C34.618 38.8856 32.6642 40.9028 30.2146 40.9428C27.7651 40.9827 25.7464 39.0305 25.7045 36.581Z" fill="#65CC99"/>
<path d="M26.9247 36.8115C26.9253 36.7867 26.9431 36.7535 26.9537 36.7285C27.1044 36.6226 27.3337 36.6012 27.5135 36.5826C27.652 35.7267 27.9365 35.3204 28.763 35.0212C28.8571 35.3214 28.8761 35.4729 28.9215 35.7905C28.7894 35.9045 28.4252 36.2103 28.4042 36.3853C28.2609 37.5837 29.5287 37.9496 29.5706 36.4591C29.5872 35.869 29.8231 34.9469 30.4336 34.6402C31.5468 34.0812 32.1744 34.7864 32.6808 35.6694C32.9269 35.6076 33.0829 35.5808 33.3347 35.5464C33.3699 35.76 33.4631 36.2154 33.423 36.4114C33.2573 36.4554 33.0182 36.4842 32.8437 36.5105C32.7947 37.096 32.6564 37.6214 32.0994 37.9471C31.9941 38.0086 31.7742 38.1243 31.6531 38.0887C31.5201 37.9613 31.4681 37.4325 31.4365 37.2264C31.6262 37.1096 31.9327 36.9274 32.0286 36.7309C32.2155 36.3521 31.9407 35.6606 31.5678 35.495C30.7092 35.1093 30.4466 36.1458 30.3422 36.8435C30.1637 38.037 29.4559 39.1377 28.1587 38.1793C27.9602 38.0327 27.7858 37.7006 27.7017 37.4512C27.4565 37.5054 27.3068 37.5297 27.0571 37.5559C26.9964 37.2823 26.9549 37.0887 26.9247 36.8115Z" fill="#65CC99"/>
<path d="M30.4952 44.6675C30.4118 44.2722 30.5503 43.8629 30.8566 43.5995C31.1629 43.3361 31.5883 43.2604 31.9667 43.4021C32.345 43.5437 32.6162 43.8801 32.6742 44.2799C32.7601 44.8715 32.3609 45.4243 31.7724 45.529C31.1839 45.6337 30.6185 45.2523 30.4952 44.6675Z" fill="#65CC99"/>
<path d="M27.6559 28.7018C27.5718 28.0996 27.9892 27.5423 28.5908 27.4537C29.1924 27.3651 29.7528 27.7784 29.8459 28.3793C29.9399 28.9865 29.5213 29.5542 28.9134 29.6437C28.3055 29.7333 27.7409 29.3104 27.6559 28.7018Z" fill="#65CC99"/>
</g>
<path d="M19.6563 33.0859H59.6978C60.9379 33.0859 61.9431 34.0912 61.9431 35.3313V56.4227H19.6562L19.6563 33.0859Z" fill="url(#paint1_linear_29_112761)"/>
<rect x="54.832" y="41.3203" width="9.16839" height="6.36174" rx="1.12266" fill="url(#paint2_linear_29_112761)"/>
<rect x="56.5156" y="43.0078" width="2.99376" height="2.99376" rx="1.49688" fill="url(#paint3_linear_29_112761)"/>
</g>
<defs>
<linearGradient id="paint0_linear_29_112761" x1="24" y1="26" x2="24" y2="54" gradientUnits="userSpaceOnUse">
<stop stop-color="#F8F8FA" stop-opacity="0"/>
<stop offset="1" stop-color="#F8F8FA"/>
</linearGradient>
<linearGradient id="paint1_linear_29_112761" x1="40.7997" y1="33.0859" x2="40.7997" y2="51.4227" gradientUnits="userSpaceOnUse">
<stop stop-color="#DFDFDF"/>
<stop offset="1" stop-color="#F8F8FA"/>
</linearGradient>
<linearGradient id="paint2_linear_29_112761" x1="64.0004" y1="44.2205" x2="54.832" y2="44.3141" gradientUnits="userSpaceOnUse">
<stop stop-color="#EEEEEE"/>
<stop offset="1" stop-color="#D6D5D5"/>
</linearGradient>
<linearGradient id="paint3_linear_29_112761" x1="58.0125" y1="43.0078" x2="58.0125" y2="46.0016" gradientUnits="userSpaceOnUse">
<stop stop-color="#C4C4C4"/>
<stop offset="1" stop-color="#ABABAB"/>
</linearGradient>
<clipPath id="clip0_29_112761">
<rect width="64" height="55.6639" fill="white"/>
</clipPath>
<clipPath id="clip1_29_112761">
<rect width="29.8401" height="29.8401" fill="white" transform="translate(19.4688 38.6641) rotate(-55.7434)"/>
</clipPath>
<clipPath id="clip2_29_112761">
<rect width="28.9077" height="28.9077" fill="white" transform="translate(17.0352 50.5703) rotate(-88.4318)"/>
</clipPath>
</defs>
</svg>