<svg width="138" height="81" viewBox="0 0 138 81" fill="none" xmlns="http://www.w3.org/2000/svg">
<path d="M33.4453 18.793H104.34V61.2512H33.4453L33.4453 18.793Z" fill="url(#paint0_linear_655_126438)"/>
<circle cx="69.0039" cy="15" r="15" fill="#EF4444"/>
<circle cx="69.0039" cy="15" r="13.7917" stroke="black" stroke-opacity="0.08" stroke-width="2.41667"/>
<g clip-path="url(#clip0_655_126438)">
<path d="M62.2539 10.5H75.7539M74.2539 10.5V21C74.2539 21.75 73.5039 22.5 72.7539 22.5H65.2539C64.5039 22.5 63.7539 21.75 63.7539 21V10.5M66.0039 10.5V9C66.0039 8.25 66.7539 7.5 67.5039 7.5H70.5039C71.2539 7.5 72.0039 8.25 72.0039 9V10.5M67.5039 14.25V18.75M70.5039 14.25V18.75" stroke="white" stroke-width="1.8" stroke-linecap="round" stroke-linejoin="round"/>
</g>
<path d="M104.34 18.793L116.579 24.3551L116.58 61.3253H104.341L104.34 18.793Z" fill="#CFCFCF"/>
<path d="M33.4427 18.793L21.204 24.3551L21.2066 61.3253H33.4453L33.4427 18.793Z" fill="#CFCFCF"/>
<g filter="url(#filter0_ii_655_126438)">
<path d="M104.27 18.7887L120.14 4.40129L136.626 3.7086C137.034 3.69145 137.248 4.18742 136.955 4.47222L116.432 24.425L104.27 18.7887Z" fill="url(#paint1_radial_655_126438)"/>
</g>
<g filter="url(#filter1_ii_655_126438)">
<path d="M33.5234 18.7887L17.6528 4.40129L1.16691 3.7086C0.758694 3.69145 0.545101 4.18742 0.838047 4.47222L21.3609 24.425L33.5234 18.7887Z" fill="url(#paint2_radial_655_126438)"/>
</g>
<path d="M20.9609 24.1436H116.703V80.3246H20.9609V24.1436Z" fill="url(#paint3_linear_655_126438)"/>
<g filter="url(#filter2_ii_655_126438)">
<path d="M21.0612 24.2759H116.582L128.164 49.9009C128.297 50.1955 128.081 50.5292 127.758 50.5292H9.88474C9.56153 50.5292 9.34614 50.1955 9.47926 49.9009L21.0612 24.2759Z" fill="url(#paint4_radial_655_126438)"/>
</g>
<defs>
<filter id="filter0_ii_655_126438" x="104.27" y="3.70801" width="32.8203" height="20.7168" filterUnits="userSpaceOnUse" color-interpolation-filters="sRGB">
<feFlood flood-opacity="0" result="BackgroundImageFix"/>
<feBlend mode="normal" in="SourceGraphic" in2="BackgroundImageFix" result="shape"/>
<feColorMatrix in="SourceAlpha" type="matrix" values="0 0 0 0 0 0 0 0 0 0 0 0 0 0 0 0 0 0 127 0" result="hardAlpha"/>
<feOffset dx="-1.03827" dy="-0.148324"/>
<feComposite in2="hardAlpha" operator="arithmetic" k2="-1" k3="1"/>
<feColorMatrix type="matrix" values="0 0 0 0 0 0 0 0 0 0 0 0 0 0 0 0 0 0 0.07 0"/>
<feBlend mode="normal" in2="shape" result="effect1_innerShadow_655_126438"/>
<feColorMatrix in="SourceAlpha" type="matrix" values="0 0 0 0 0 0 0 0 0 0 0 0 0 0 0 0 0 0 127 0" result="hardAlpha"/>
<feOffset dx="-0.593295" dy="0.296648"/>
<feComposite in2="hardAlpha" operator="arithmetic" k2="-1" k3="1"/>
<feColorMatrix type="matrix" values="0 0 0 0 1 0 0 0 0 1 0 0 0 0 1 0 0 0 0.6 0"/>
<feBlend mode="normal" in2="effect1_innerShadow_655_126438" result="effect2_innerShadow_655_126438"/>
</filter>
<filter id="filter1_ii_655_126438" x="0.703125" y="3.70801" width="32.8203" height="20.7168" filterUnits="userSpaceOnUse" color-interpolation-filters="sRGB">
<feFlood flood-opacity="0" result="BackgroundImageFix"/>
<feBlend mode="normal" in="SourceGraphic" in2="BackgroundImageFix" result="shape"/>
<feColorMatrix in="SourceAlpha" type="matrix" values="0 0 0 0 0 0 0 0 0 0 0 0 0 0 0 0 0 0 127 0" result="hardAlpha"/>
<feOffset dx="1.77988" dy="0.148324"/>
<feComposite in2="hardAlpha" operator="arithmetic" k2="-1" k3="1"/>
<feColorMatrix type="matrix" values="0 0 0 0 0 0 0 0 0 0 0 0 0 0 0 0 0 0 0.07 0"/>
<feBlend mode="normal" in2="shape" result="effect1_innerShadow_655_126438"/>
<feColorMatrix in="SourceAlpha" type="matrix" values="0 0 0 0 0 0 0 0 0 0 0 0 0 0 0 0 0 0 127 0" result="hardAlpha"/>
<feOffset dx="0.593295" dy="-0.296648"/>
<feComposite in2="hardAlpha" operator="arithmetic" k2="-1" k3="1"/>
<feColorMatrix type="matrix" values="0 0 0 0 1 0 0 0 0 1 0 0 0 0 1 0 0 0 0.6 0"/>
<feBlend mode="normal" in2="effect1_innerShadow_655_126438" result="effect2_innerShadow_655_126438"/>
</filter>
<filter id="filter2_ii_655_126438" x="9.4375" y="24.2759" width="118.766" height="26.2534" filterUnits="userSpaceOnUse" color-interpolation-filters="sRGB">
<feFlood flood-opacity="0" result="BackgroundImageFix"/>
<feBlend mode="normal" in="SourceGraphic" in2="BackgroundImageFix" result="shape"/>
<feColorMatrix in="SourceAlpha" type="matrix" values="0 0 0 0 0 0 0 0 0 0 0 0 0 0 0 0 0 0 127 0" result="hardAlpha"/>
<feOffset dy="-1.18659"/>
<feComposite in2="hardAlpha" operator="arithmetic" k2="-1" k3="1"/>
<feColorMatrix type="matrix" values="0 0 0 0 0 0 0 0 0 0 0 0 0 0 0 0 0 0 0.07 0"/>
<feBlend mode="normal" in2="shape" result="effect1_innerShadow_655_126438"/>
<feColorMatrix in="SourceAlpha" type="matrix" values="0 0 0 0 0 0 0 0 0 0 0 0 0 0 0 0 0 0 127 0" result="hardAlpha"/>
<feOffset dy="-0.296648"/>
<feComposite in2="hardAlpha" operator="arithmetic" k2="-1" k3="1"/>
<feColorMatrix type="matrix" values="0 0 0 0 1 0 0 0 0 1 0 0 0 0 1 0 0 0 0.6 0"/>
<feBlend mode="normal" in2="effect1_innerShadow_655_126438" result="effect2_innerShadow_655_126438"/>
</filter>
<linearGradient id="paint0_linear_655_126438" x1="68.8927" y1="42.7295" x2="68.8927" y2="74.5627" gradientUnits="userSpaceOnUse">
<stop stop-color="#D6D6D6"/>
<stop offset="1" stop-color="white"/>
</linearGradient>
<radialGradient id="paint1_radial_655_126438" cx="0" cy="0" r="1" gradientUnits="userSpaceOnUse" gradientTransform="translate(175.687 5.66204) rotate(90) scale(18.7629 68.2674)">
<stop stop-color="#F6F6F6"/>
<stop offset="1" stop-color="#EBEBEB"/>
</radialGradient>
<radialGradient id="paint2_radial_655_126438" cx="0" cy="0" r="1" gradientUnits="userSpaceOnUse" gradientTransform="translate(-37.8944 5.66204) rotate(90) scale(18.7629 68.2674)">
<stop stop-color="#F6F6F6"/>
<stop offset="1" stop-color="#EBEBEB"/>
</radialGradient>
<linearGradient id="paint3_linear_655_126438" x1="68.8319" y1="42.5433" x2="68.8319" y2="80.2027" gradientUnits="userSpaceOnUse">
<stop stop-color="#CACACA"/>
<stop offset="1" stop-color="#FBFBFC"/>
</linearGradient>
<radialGradient id="paint4_radial_655_126438" cx="0" cy="0" r="1" gradientUnits="userSpaceOnUse" gradientTransform="translate(68.8214 31.7662) rotate(90) scale(18.763 68.2674)">
<stop stop-color="#F6F6F6"/>
<stop offset="1" stop-color="#EBEBEB"/>
</radialGradient>
<clipPath id="clip0_655_126438">
<rect width="18" height="18" fill="white" transform="translate(60.0039 6)"/>
</clipPath>
</defs>
</svg>
