<svg width="109" height="100" viewBox="0 0 109 100" fill="none" xmlns="http://www.w3.org/2000/svg">
<rect x="2" width="100" height="100" rx="50" fill="url(#paint0_linear_1135_128964)"/>
<path d="M44.7363 14H60.2509C61.3915 14.6176 62.1543 14.8578 62.5848 16.2975C62.8343 17.1317 62.8647 17.9789 63.0151 18.8116C63.3728 20.7916 63.5317 23.2806 63.9586 25.2071C64.8195 25.6528 65.6959 26.0979 66.5347 26.5832C67.2306 26.9858 67.9508 27.5204 68.6432 27.9054C70.2924 27.4371 72.0327 26.5092 73.6687 25.9309C74.8642 25.5084 76.2374 24.7371 77.4875 24.6052C78.1396 24.5332 78.7979 24.6648 79.3723 24.9822C80.4415 25.5714 81.278 27.3511 81.8963 28.4211L84.2887 32.5652L86.4524 36.3172C86.925 37.1346 87.5991 38.0668 87.8584 38.9773C88.0843 39.7723 88.0444 40.7417 87.6248 41.4683C86.8792 42.7586 81.6567 46.4613 80.1396 47.7194C80.1686 49.8411 80.2732 51.0995 80.1036 53.2659L84.305 56.5457C85.6721 57.6099 87.7687 58.8305 87.9781 60.6485C88.0429 61.215 87.9632 61.7886 87.7466 62.3159C87.4731 62.9677 86.6902 64.2547 86.3143 64.9057L83.7031 69.4219L81.6037 73.06C81.1862 73.7835 80.789 74.5993 80.2606 75.2469C79.76 75.8604 79.0405 76.3299 78.2435 76.4086C76.0972 76.6206 71.069 73.698 68.5873 73.104C66.8467 74.2182 65.7697 74.8231 63.9829 75.7991C63.7756 76.5236 63.662 77.595 63.5537 78.3638L62.9901 82.3801C62.7642 83.988 62.7132 85.7332 61.094 86.5587C60.7986 86.7091 60.4951 86.8417 60.2058 87H44.8109C43.7524 86.4846 42.9128 86.1716 42.5025 84.9412C42.1779 83.949 42.1075 82.8726 41.9475 81.8415C41.6379 79.8472 41.4281 77.8202 41.068 75.8344C40.3805 75.4006 39.5445 75.0393 38.8336 74.6268C38.0041 74.1455 37.1983 73.6133 36.3939 73.0911C34.0046 73.6342 28.8708 76.6518 26.8097 76.4236C25.9888 76.3326 25.2061 75.8677 24.702 75.2168C24.1751 74.5363 23.7675 73.6981 23.336 72.9511L20.9471 68.8082L18.5664 64.6991C17.6089 63.0445 16.1311 61.0303 17.6604 59.1162C18.4278 58.1558 19.7466 57.2655 20.7347 56.4942C22.1141 55.4115 23.4994 54.3364 24.8906 53.2689C24.8039 51.0933 24.7902 49.959 24.9016 47.7597C23.4948 46.4712 21.6063 45.1604 20.0742 43.9672C19.1675 43.261 18.0384 42.5496 17.4143 41.5659C16.9707 40.8668 16.9209 39.9208 17.1078 39.1336C17.3633 38.0578 20.5979 32.7897 21.392 31.4138C22.4043 29.6599 23.4612 27.5674 24.6045 25.9294C24.8528 25.5725 25.1712 25.2701 25.5402 25.0405C27.1179 24.0734 28.7192 24.8818 30.2301 25.4929L33.8909 26.9765C34.6106 27.268 35.6819 27.7282 36.4124 27.9112C38.3033 26.6256 39.097 26.2612 41.02 25.217C41.1931 24.6676 41.302 23.7396 41.3866 23.1419L41.9667 19.0282C42.3343 16.4219 42.1302 15.2675 44.7363 14ZM52.8979 62.6415C59.5926 62.422 64.8436 56.8156 64.6298 50.1156C64.416 43.4156 58.8182 38.156 52.1231 38.3644C45.42 38.5731 40.1569 44.1831 40.3709 50.8909C40.585 57.5988 46.1952 62.8613 52.8979 62.6415Z" fill="url(#paint1_linear_1135_128964)"/>
<path d="M44.7363 14H60.2509C61.3915 14.6176 62.1543 14.8578 62.5848 16.2975C62.8343 17.1317 62.8647 17.9789 63.0151 18.8116C63.3728 20.7916 63.5317 23.2806 63.9586 25.2071C64.8195 25.6528 65.6959 26.0979 66.5347 26.5832C67.2306 26.9858 67.9508 27.5204 68.6432 27.9054C70.2924 27.4371 72.0327 26.5092 73.6687 25.9309C74.8642 25.5084 76.2374 24.7371 77.4875 24.6052C78.1396 24.5332 78.7979 24.6648 79.3723 24.9822C80.4415 25.5714 81.278 27.3511 81.8963 28.4211L84.2887 32.5652L86.4524 36.3172C86.925 37.1346 87.5991 38.0668 87.8584 38.9773C88.0843 39.7723 88.0444 40.7417 87.6248 41.4683C86.8792 42.7586 81.6567 46.4613 80.1396 47.7194C80.1686 49.8411 80.2732 51.0995 80.1036 53.2659L84.305 56.5457C85.6721 57.6099 87.7687 58.8305 87.9781 60.6485C88.0429 61.215 87.9632 61.7886 87.7466 62.3159C87.4731 62.9677 86.6902 64.2547 86.3143 64.9057L83.7031 69.4219L81.6037 73.06C81.1862 73.7835 80.789 74.5993 80.2606 75.2469C79.76 75.8604 79.0405 76.3299 78.2435 76.4086C76.0972 76.6206 71.069 73.698 68.5873 73.104C66.8467 74.2182 65.7697 74.8231 63.9829 75.7991C63.7756 76.5236 63.662 77.595 63.5537 78.3638L62.9901 82.3801C62.7642 83.988 62.7132 85.7332 61.094 86.5587C60.7986 86.7091 60.4951 86.8417 60.2058 87H44.8109C43.7524 86.4846 42.9128 86.1716 42.5025 84.9412C42.1779 83.949 42.1075 82.8726 41.9475 81.8415C41.6379 79.8472 41.4281 77.8202 41.068 75.8344C40.3805 75.4006 39.5445 75.0393 38.8336 74.6268C38.0041 74.1455 37.1983 73.6133 36.3939 73.0911C34.0046 73.6342 28.8708 76.6518 26.8097 76.4236C25.9888 76.3326 25.2061 75.8677 24.702 75.2168C24.1751 74.5363 23.7675 73.6981 23.336 72.9511L20.9471 68.8082L18.5664 64.6991C17.6089 63.0445 16.1311 61.0303 17.6604 59.1162C18.4278 58.1558 19.7466 57.2655 20.7347 56.4942C22.1141 55.4115 23.4994 54.3364 24.8906 53.2689C24.8039 51.0933 24.7902 49.959 24.9016 47.7597C23.4948 46.4712 21.6063 45.1604 20.0742 43.9672C19.1675 43.261 18.0384 42.5496 17.4143 41.5659C16.9707 40.8668 16.9209 39.9208 17.1078 39.1336C17.3633 38.0578 20.5979 32.7897 21.392 31.4138C22.4043 29.6599 23.4612 27.5674 24.6045 25.9294C24.8528 25.5725 25.1712 25.2701 25.5402 25.0405C27.1179 24.0734 28.7192 24.8818 30.2301 25.4929L33.8909 26.9765C34.6106 27.268 35.6819 27.7282 36.4124 27.9112C38.3033 26.6256 39.097 26.2612 41.02 25.217C41.1931 24.6676 41.302 23.7396 41.3866 23.1419L41.9667 19.0282C42.3343 16.4219 42.1302 15.2675 44.7363 14ZM52.8979 62.6415C59.5926 62.422 64.8436 56.8156 64.6298 50.1156C64.416 43.4156 58.8182 38.156 52.1231 38.3644C45.42 38.5731 40.1569 44.1831 40.3709 50.8909C40.585 57.5988 46.1952 62.8613 52.8979 62.6415Z" fill="#AEBDC3" fill-opacity="0.08"/>
<circle cx="94" cy="70" r="15" fill="#3B82F6"/>
<circle cx="94" cy="70" r="13.7917" stroke="black" stroke-opacity="0.08" stroke-width="2.41667"/>
<g clip-path="url(#clip0_1135_128964)">
<rect width="16" height="16" transform="translate(86 62)" fill="#3B82F6"/>
<path d="M100.116 66.5413C100.469 66.1889 100.667 65.7109 100.667 65.2125C100.667 64.7141 100.469 64.2361 100.116 63.8836C99.7641 63.5311 99.2861 63.3331 98.7877 63.333C98.2893 63.3329 97.8113 63.5309 97.4588 63.8833L88.5615 72.7826C88.4067 72.9369 88.2922 73.127 88.2281 73.3359L87.3475 76.2373C87.3302 76.2949 87.3289 76.3562 87.3437 76.4145C87.3585 76.4728 87.3887 76.5261 87.4313 76.5686C87.4739 76.6111 87.5272 76.6413 87.5856 76.656C87.6439 76.6707 87.7052 76.6693 87.7628 76.6519L90.6648 75.7719C90.8736 75.7084 91.0636 75.5947 91.2181 75.4406L100.116 66.5413Z" stroke="white" stroke-width="2.2" stroke-linecap="round" stroke-linejoin="round"/>
</g>
<defs>
<linearGradient id="paint0_linear_1135_128964" x1="52" y1="0" x2="52" y2="100" gradientUnits="userSpaceOnUse">
<stop stop-color="#EDEDF1"/>
<stop offset="1" stop-color="white"/>
</linearGradient>
<linearGradient id="paint1_linear_1135_128964" x1="52.5" y1="14" x2="52.5" y2="87" gradientUnits="userSpaceOnUse">
<stop stop-color="#C6C6C6"/>
<stop offset="1" stop-color="#EDEDED"/>
</linearGradient>
<clipPath id="clip0_1135_128964">
<rect width="16" height="16" fill="white" transform="translate(86 62)"/>
</clipPath>
</defs>
</svg>
