<svg width="115" height="126" viewBox="0 0 115 126" fill="none" xmlns="http://www.w3.org/2000/svg">
<g clip-path="url(#clip0_779_5272)">
<rect x="2.09961" y="21" width="105" height="105" rx="52.5" fill="url(#paint0_linear_779_5272)"/>
<g clip-path="url(#clip1_779_5272)">
<rect x="22.748" y="45.5" width="64.75" height="80.5" rx="5.25" fill="url(#paint1_linear_779_5272)"/>
<rect x="27.998" y="57.75" width="54.25" height="5.25" rx="2.625" fill="#C2C2C2"/>
<rect x="27.998" y="68.25" width="40.25" height="5.25" rx="2.625" fill="#C2C2C2"/>
<rect x="27.998" y="78.75" width="49" height="5.25" rx="2.625" fill="#C2C2C2"/>
<rect x="27.998" y="89.25" width="29.75" height="5.25" rx="2.625" fill="#C2C2C2"/>
</g>
</g>
<circle cx="98.4902" cy="94.5" r="15.75" fill="#EF4444"/>
<circle cx="98.4902" cy="94.5" r="14.4812" stroke="black" stroke-opacity="0.08" stroke-width="2.5375"/>
<path d="M103.214 89.7759L93.7642 99.2259M93.7642 89.7759L103.214 99.2259" stroke="white" stroke-width="1.89" stroke-linecap="round" stroke-linejoin="round"/>
<path d="M45.1044 38.5292C45.6805 37.9961 45.9774 37.8311 46.7635 37.9978C47.2686 38.3313 47.8427 38.9016 48.3811 39.2218C49.5807 39.9348 49.6173 41.4769 48.1681 41.8567C47.5514 42.0183 46.7842 41.3861 46.3241 41.0455C45.3533 40.2521 44.6252 39.8927 45.1044 38.5292Z" fill="#373737"/>
<path d="M40.2331 27.5005C40.657 26.6096 41.4507 26.4979 42.3003 26.8105C42.5136 27.119 42.9387 27.6894 42.8216 28.067C42.5346 28.9925 42.83 30.4323 41.9294 30.997C41.6212 31.1917 41.2464 31.2507 40.8933 31.1604C40.5445 31.0737 40.2479 30.8452 40.0749 30.5302C39.6474 29.743 40.1265 28.3384 40.2331 27.5005Z" fill="#373737"/>
<path d="M42.0356 33.0238C43.4349 32.9082 43.4005 33.8064 44.0638 34.6636C44.7964 35.6104 45.2877 36.9441 43.7277 37.434C42.5324 37.5965 42.2522 36.7312 41.6901 35.9114C40.967 34.8569 40.4606 33.6029 42.0356 33.0238Z" fill="#373737"/>
<path d="M52.6631 5.61034C53.0104 3.79917 54.0541 2.19639 55.57 1.14629C56.7486 0.347175 58.379 -0.196284 59.8091 0.0671121C61.1239 0.309203 61.7677 1.23271 61.445 2.54492C61.2055 3.51731 60.3089 4.96358 59.5463 5.59572C60.5258 5.79512 61.836 5.19805 62.5881 6.26109C62.756 6.49843 62.796 7.06073 62.7239 7.34309C62.3358 8.76754 60.5254 8.16372 59.5488 8.33188C60.4609 9.2493 61.3779 10.4998 61.5245 11.8208C61.6703 13.1388 60.5329 13.8674 59.356 13.915C57.2417 14.0005 55.1831 12.8302 53.9329 11.1641C53.4577 10.528 52.7225 9.11445 52.6777 8.31731C52.2817 8.3191 51.9313 8.26263 51.6083 8.01225C51.321 7.78562 51.1405 7.45008 51.1097 7.08547C51.0812 6.73294 51.1975 6.38399 51.4318 6.11904C51.7849 5.71316 52.1694 5.6447 52.6631 5.61034Z" fill="#FFC1CC"/>
<path d="M52.6777 8.31664L57.5649 8.30615C57.8522 8.30606 59.3598 8.2892 59.5489 8.33122C60.4609 9.24863 61.3779 10.4992 61.5245 11.8201C61.6703 13.1382 60.5329 13.8667 59.356 13.9143C57.2417 13.9999 55.1831 12.8295 53.9329 11.1634C53.4578 10.5273 52.7225 9.11378 52.6777 8.31664Z" fill="#FFC1CC"/>
<path d="M52.6631 5.61032C53.1304 5.69769 59.2815 5.67333 59.5463 5.5957C60.5258 5.7951 61.836 5.19803 62.5881 6.26108C62.756 6.49842 62.796 7.06072 62.7239 7.34307C62.3358 8.76752 60.5254 8.1637 59.5488 8.33187C59.3598 8.28985 57.8522 8.30671 57.5648 8.3068L52.6777 8.31729C52.2817 8.31908 51.9313 8.26261 51.6083 8.01224C51.321 7.7856 51.1405 7.45006 51.1097 7.08545C51.0812 6.73292 51.1975 6.38397 51.4318 6.11902C51.7849 5.71314 52.1694 5.64468 52.6631 5.61032Z" fill="#373737"/>
<path d="M65.8429 5.63154C67.2276 5.5368 69.1096 6.92935 69.8958 7.97898C70.6046 8.92559 70.3868 10.0385 69.1608 10.3161C67.8973 10.3648 67.744 9.48643 66.8578 8.81323C66.109 8.24481 64.9021 8.36187 64.6964 7.27613C64.5373 6.43747 65.0158 5.79496 65.8429 5.63154Z" fill="#373737"/>
<path d="M70.1668 11.6197C70.8373 11.5816 71.5524 11.9785 71.6431 12.6911C71.826 14.1229 71.4928 15.823 70.7802 17.0799C70.5624 17.4641 70.1343 17.6121 69.7304 17.6792C69.0882 17.6935 68.5368 17.377 68.366 16.7316C68.3065 16.5114 68.2986 16.2804 68.3419 16.0565C68.4393 15.5437 68.7171 15.0019 68.8312 14.4735C69.084 13.3068 68.6018 11.9605 70.1668 11.6197Z" fill="#373737"/>
<path d="M66.5745 18.1564C67.2871 18.1492 67.8739 18.5015 68.0629 19.2011C68.3299 20.1891 67.3958 20.7447 66.6765 21.1127C65.7333 21.5955 64.8695 21.9457 63.8584 22.22C63.2712 22.2855 62.5811 21.9503 62.4174 21.3511C61.9631 19.6855 63.5548 19.531 64.6621 19.0528C65.3101 18.7731 65.8678 18.3336 66.5745 18.1564Z" fill="#373737"/>
<path d="M58.7878 20.3342C59.3771 20.287 60.0285 20.2527 60.5016 20.6556C60.7743 20.8839 60.9368 21.2174 60.9488 21.5728C60.9634 21.9444 60.826 22.3059 60.5686 22.5741C59.9856 23.1722 58.249 23.0836 57.4056 23.1024C56.8426 23.1105 56.1558 23.1716 55.684 22.8138C55.0714 22.3489 55.0318 21.3694 55.5436 20.8119C55.6882 20.6538 55.8735 20.5386 56.0788 20.4791C56.5027 20.3522 58.1944 20.3728 58.7878 20.3342Z" fill="#373737"/>
<path d="M51.4257 20.2475C51.9857 20.189 52.6706 20.4902 52.8515 20.9751C53.4628 22.613 52.0631 23.0164 50.7712 23.0329C50.4409 23.0372 49.8778 23.1387 49.5731 23.1727C48.7685 23.2719 48.0785 22.809 47.9714 21.9861C47.9263 21.6357 48.0286 21.2822 48.2539 21.0101C48.8252 20.3169 50.5359 20.316 51.4257 20.2475Z" fill="#373737"/>
<path d="M44.777 22.1206C45.9947 21.9568 46.8151 23.152 46.2173 24.1437C45.9624 24.5666 44.436 25.6854 43.9785 25.8085C43.2801 25.8457 42.6312 25.6214 42.4078 24.8868C42.3037 24.535 42.3452 24.1563 42.5231 23.8355C42.8349 23.2749 44.149 22.2951 44.777 22.1206Z" fill="#373737"/>
<defs>
<linearGradient id="paint0_linear_779_5272" x1="54.5996" y1="21" x2="54.5996" y2="126" gradientUnits="userSpaceOnUse">
<stop stop-color="#EDEDF1"/>
<stop offset="1" stop-color="white"/>
</linearGradient>
<linearGradient id="paint1_linear_779_5272" x1="55.123" y1="45.5" x2="55.123" y2="126" gradientUnits="userSpaceOnUse">
<stop stop-color="#D3D3D3"/>
<stop offset="1" stop-color="#F0F0F0"/>
</linearGradient>
<clipPath id="clip0_779_5272">
<rect x="2.09961" y="21" width="105" height="105" rx="52.5" fill="white"/>
</clipPath>
<clipPath id="clip1_779_5272">
<rect width="106.75" height="106.75" fill="white" transform="translate(1.74805 19.25)"/>
</clipPath>
</defs>
</svg>
