<svg width="82" height="52" viewBox="0 0 82 52" fill="none" xmlns="http://www.w3.org/2000/svg">
<g clip-path="url(#clip0_1836_2186)">
<path d="M29.0461 2.46117C32.115 2.32746 35.184 2.46117 38.253 2.43888C37.9525 4.89031 37.7594 7.16346 37.5018 9.61488C36.4288 9.5926 35.3128 9.5926 34.2182 9.5926H24.7752C23.8524 9.63717 22.8437 9.81545 22.0282 10.3057C21.2341 10.7515 20.8907 11.7543 21.2127 12.6235C21.5775 13.3143 22.3716 13.6263 23.0583 13.8492C25.2259 14.5177 27.5008 14.7852 29.7328 15.32C31.2137 15.6543 32.6301 16.1223 33.8319 17.1252C34.6689 17.7937 35.1625 18.752 35.3772 19.7772C36.1927 24.3457 33.9178 29.2932 29.9045 31.388C27.6511 32.5469 24.8826 32.8589 22.4145 32.9703C17.414 32.9926 12.392 32.9703 7.39154 32.9703C8.20707 30.6303 9.06553 28.3126 9.83814 25.9503C13.6797 25.9503 17.4998 25.8166 21.3414 25.8389C22.157 25.8389 22.951 25.8389 23.7451 25.8389C24.5392 25.8389 24.5606 25.7943 24.9684 25.7275C25.7625 25.5937 26.5565 25.304 26.9643 24.5463C27.2433 24.0783 27.415 23.2315 26.8785 22.7857C26.0844 22.2063 25.2903 22.0949 24.4962 21.9612C22.9296 21.716 21.3414 21.4932 19.7747 21.248C18.1222 20.9137 16.3409 20.624 14.9889 19.4875C13.1861 18.0389 12.4993 15.4315 12.7783 13.1583C13.229 10.2389 14.4309 7.31946 16.5126 5.26917C17.6072 4.15488 18.9592 3.46403 20.44 3.08517C23.3373 2.37203 26.1059 2.46117 29.0461 2.46117Z" fill="#AE2224"/>
<path d="M77.3771 38.5198C78.6862 38.5644 79.6734 39.2998 80.6392 40.1466C80.0597 40.7706 79.4803 41.3724 78.9008 41.9741C78.4931 41.6398 78.1497 41.3055 77.6561 41.1272C76.7547 40.8598 75.8319 41.0158 75.2309 41.5729C75.0163 41.7958 74.9949 42.1078 75.2309 42.3529C76.1109 43.1329 77.1839 43.1998 78.1711 43.7569C78.9223 44.1581 79.5876 44.7598 79.8237 45.6289C80.1885 46.7655 79.8022 48.1026 79.0725 48.9941C77.7419 50.6209 75.2309 50.9552 73.3638 50.3312C72.3551 50.0192 71.6898 49.3952 71.1104 48.5038C71.8186 47.9912 72.441 47.3895 73.0204 46.7432C73.4282 47.1666 73.8789 47.6346 74.3939 47.9021C74.8661 48.1695 75.4885 48.1918 76.0465 48.1472C76.6045 48.1027 76.4328 48.1026 76.6045 48.0135C76.9693 47.8352 77.2054 47.5678 77.3341 47.1889C77.4629 46.8101 77.3127 46.4981 77.0337 46.2975C75.8533 45.4729 74.4154 45.4729 73.3209 44.5592C72.6556 44.0021 72.4839 43.1998 72.5697 42.3529C72.6341 41.3501 73.0848 40.3918 73.793 39.7232C74.7802 38.8095 76.0894 38.3861 77.42 38.5198H77.3771Z" fill="#373B3F"/>
<path d="M5.09519 38.6532C6.4258 38.4304 7.92809 38.4304 9.06555 39.255C9.77377 39.723 10.0742 40.4361 10.4391 41.1938C9.70939 41.595 8.9797 42.0184 8.22855 42.375C7.77787 41.907 7.49887 41.3052 6.83357 41.127C5.7605 40.815 4.45135 41.283 3.72167 42.1521C2.84175 43.155 2.51983 44.6035 2.60568 45.9184C2.60568 46.8321 3.14221 47.7458 4.02213 48.0355C5.37419 48.4367 6.68334 47.7904 7.47741 46.6315C8.07832 47.0995 8.76509 47.4561 9.36601 47.9241C8.20709 50.0635 5.39565 50.9772 3.16367 50.4647C1.57553 50.0635 0.373694 48.6595 0.0517737 47.0104C-0.699374 43.4224 1.57553 39.4555 5.09519 38.6532Z" fill="#373B3F"/>
<path d="M24.818 38.8094C25.6765 38.7648 26.5564 38.8094 27.4149 38.7871C27.1573 40.9488 26.771 43.1105 26.4276 45.25C26.3203 46.0077 26.0199 46.7654 26.492 47.434C27.0929 48.37 28.4665 48.2808 29.3035 47.746C30.1619 47.2111 30.4194 46.3197 30.5911 45.3614C30.956 43.1774 31.3208 40.9934 31.6213 38.7871H34.2396C33.8533 41.194 33.5099 43.6231 33.0592 46.03C32.8446 47.2557 32.2651 48.3923 31.3637 49.2168C29.7971 50.5763 27.5865 50.9774 25.6765 50.3311C24.9039 50.0637 24.303 49.5288 23.981 48.7488C23.5733 47.902 23.6591 46.8323 23.7664 45.9185C24.1098 43.5563 24.5605 41.194 24.818 38.8094Z" fill="#373B3F"/>
<path d="M47.5672 38.7871H50.3357C49.6704 42.6425 49.0909 46.5203 48.3827 50.3757H45.7215C46.3653 46.5203 47.0521 42.6648 47.5672 38.7871Z" fill="#373B3F"/>
<path d="M53.0613 38.7871H60.2294C60.1221 39.5894 59.9718 40.3471 59.7787 41.3277C58.1906 41.3722 56.581 41.35 54.9928 41.35C54.864 41.974 54.7567 42.6202 54.6494 43.2665C56.0659 43.2665 57.4823 43.2665 58.8773 43.2442C58.7271 44.1357 58.5769 44.9602 58.4052 45.8517C57.0102 45.8071 55.6152 45.8071 54.1987 45.8294C54.1129 46.5202 53.9841 47.2111 53.8768 47.902C55.5079 47.8797 57.1604 47.8351 58.7915 47.8351C58.6627 48.7042 58.5339 49.5288 58.4052 50.3757C55.8942 50.3757 53.3832 50.3757 50.8508 50.3757C51.4302 46.7208 52.0741 43.0882 52.6535 39.4557C52.7823 39.1437 52.6535 38.7425 53.0613 38.7871Z" fill="#373B3F"/>
<path d="M21.5558 40.5476C20.4398 38.787 18.1649 38.2744 16.2763 38.6979C12.9283 39.3219 10.6534 42.9321 10.9539 46.3419C10.9968 48.303 12.3704 50.0636 14.216 50.4647C15.9544 50.8436 17.8859 50.487 19.3024 49.3727C20.8691 48.1693 21.8134 46.3419 22.1567 44.3584C22.307 42.999 22.307 41.7287 21.5558 40.5476ZM19.3882 44.5813C19.1307 46.0967 18.2078 47.5899 16.727 48.0579C16.0402 48.2139 15.2033 48.2139 14.6023 47.7459C14.1302 47.3893 13.8083 46.8767 13.658 46.2973C13.5078 45.7179 13.5722 45.6064 13.5937 45.2721C13.7653 43.3779 14.6882 41.5281 16.6412 41.0601C17.4996 40.9264 18.4439 41.127 19.0019 41.8624C19.5814 42.6201 19.5814 43.6676 19.3882 44.5813Z" fill="#373B3F"/>
<path d="M43.983 44.2695C44.6912 43.0661 44.9917 41.417 44.1976 40.1912C43.5538 39.2107 42.3734 38.8541 41.2789 38.7872C39.7766 38.765 38.2743 38.7872 36.772 38.7872C36.1067 42.6427 35.6131 46.5427 34.7761 50.3535H37.5017C37.7377 49.0164 37.9953 47.6792 38.1884 46.3421C38.5962 46.3421 39.004 46.3644 39.4117 46.3644C39.8839 47.7015 40.4204 49.0164 40.8711 50.3535H43.8757C43.2104 48.8604 42.6095 47.3227 41.9227 45.8295C42.7597 45.4952 43.4894 45.0718 43.983 44.2695ZM40.9355 43.757C40.2272 43.9798 39.3903 43.913 38.6391 43.8907C38.8108 43.0438 38.8966 42.1301 39.1113 41.261C39.7336 41.261 40.3775 41.2387 41.0428 41.3055C41.7081 41.3724 41.6008 41.3724 41.7295 41.4615C42.5022 42.0632 41.9871 43.4004 41.0642 43.6901L40.9355 43.757Z" fill="#373B3F"/>
<path d="M39.9698 2.34988L38.6606 32.9705L47.9963 32.9036L57.7183 14.0945L57.2033 32.8813L66.3029 32.9927L76.5829 11.8213H68.0627L63.7704 21.5156L64.9294 2.28303L56.6238 2.26074L46.816 21.1813L48.211 2.3276L39.9698 2.34988Z" fill="#AE2224"/>
<path d="M68.8784 10.1279L77.3771 10.1056L78.815 7.38672H70.1017L68.8784 10.1279Z" fill="#AE2224"/>
<path d="M71.0674 5.00171L79.9738 4.97942L81.3259 2.23828L72.3121 2.32742L71.0674 5.00171Z" fill="#AE2224"/>
<path d="M69.7368 44.2915C70.445 43.0881 70.7455 41.4389 69.9514 40.2132C69.3075 39.2327 68.1272 38.8761 67.0326 38.8092C65.5303 38.7869 64.028 38.8092 62.5258 38.8092C61.8604 42.6646 61.3668 46.5647 60.5298 50.3755H63.2554C63.4915 49.0384 63.749 47.7012 63.9422 46.3641C64.35 46.3641 64.7577 46.3864 65.1655 46.3864C65.6377 47.7235 66.1742 49.0384 66.6249 50.3755H69.6295C68.9642 48.8824 68.3632 47.3447 67.6765 45.8515C68.5135 45.5172 69.2432 45.0938 69.7368 44.2915ZM66.6893 43.7789C65.981 44.0018 65.144 43.9349 64.3929 43.9127C64.5646 43.0658 64.6504 42.1521 64.865 41.2829C65.4874 41.2829 66.1313 41.2607 66.7966 41.3275C67.4619 41.3944 67.3546 41.3944 67.4833 41.4835C68.2559 42.0852 67.7409 43.4224 66.818 43.7121L66.6893 43.7789Z" fill="#373B3F"/>
</g>
<defs>
<clipPath id="clip0_1836_2186">
<rect width="82" height="52" fill="white"/>
</clipPath>
</defs>
</svg>
