<svg width="82" height="52" viewBox="0 0 82 52" fill="none" xmlns="http://www.w3.org/2000/svg">
<g clip-path="url(#clip0_3198_82339)">
<path d="M29.0461 2.46166C32.1151 2.32794 35.1841 2.46166 38.253 2.43937C37.9526 4.8908 37.7594 7.16394 37.5019 9.61537C36.4288 9.59309 35.3128 9.59309 34.2183 9.59309H24.7753C23.8525 9.63766 22.8438 9.81594 22.0283 10.3062C21.2342 10.7519 20.8908 11.7548 21.2127 12.6239C21.5776 13.3148 22.3716 13.6268 23.0584 13.8497C25.226 14.5182 27.5009 14.7857 29.7329 15.3205C31.2137 15.6548 32.6302 16.1228 33.832 17.1257C34.669 17.7942 35.1626 18.7525 35.3772 19.7777C36.1928 24.3462 33.9178 29.2937 29.9046 31.3885C27.6511 32.5474 24.8826 32.8594 22.4146 32.9708C17.4141 32.9931 12.3921 32.9708 7.3916 32.9708C8.20713 30.6308 9.06559 28.3131 9.8382 25.9508C13.6798 25.9508 17.4999 25.8171 21.3415 25.8394C22.157 25.8394 22.9511 25.8394 23.7452 25.8394C24.5392 25.8394 24.5607 25.7948 24.9685 25.7279C25.7625 25.5942 26.5566 25.3045 26.9644 24.5468C27.2434 24.0788 27.4151 23.2319 26.8785 22.7862C26.0844 22.2068 25.2904 22.0954 24.4963 21.9617C22.9296 21.7165 21.3415 21.4937 19.7748 21.2485C18.1223 20.9142 16.341 20.6245 14.9889 19.4879C13.1862 18.0394 12.4994 15.4319 12.7784 13.1588C13.2291 10.2394 14.4309 7.31994 16.5127 5.26966C17.6072 4.15537 18.9593 3.46451 20.4401 3.08566C23.3374 2.37251 26.1059 2.46166 29.0461 2.46166Z" fill="#FFF0EF"/>
<path d="M77.3771 38.5193C78.6862 38.5639 79.6734 39.2993 80.6392 40.1462C80.0597 40.7702 79.4803 41.3719 78.9008 41.9736C78.4931 41.6393 78.1497 41.305 77.6561 41.1267C76.7547 40.8593 75.8319 41.0153 75.2309 41.5724C75.0163 41.7953 74.9949 42.1073 75.2309 42.3524C76.1109 43.1324 77.1839 43.1993 78.1711 43.7564C78.9223 44.1576 79.5876 44.7593 79.8237 45.6284C80.1885 46.765 79.8022 48.1022 79.0725 48.9936C77.7419 50.6204 75.2309 50.9547 73.3638 50.3307C72.3551 50.0187 71.6898 49.3947 71.1104 48.5033C71.8186 47.9907 72.441 47.389 73.0204 46.7427C73.4282 47.1662 73.8789 47.6342 74.3939 47.9016C74.8661 48.169 75.4885 48.1913 76.0465 48.1467C76.6045 48.1022 76.4328 48.1022 76.6045 48.013C76.9693 47.8347 77.2054 47.5673 77.3341 47.1884C77.4629 46.8096 77.3127 46.4976 77.0337 46.297C75.8533 45.4724 74.4154 45.4724 73.3209 44.5587C72.6556 44.0016 72.4839 43.1993 72.5697 42.3524C72.6341 41.3496 73.0848 40.3913 73.793 39.7227C74.7802 38.809 76.0894 38.3856 77.42 38.5193H77.3771Z" fill="#FF8483"/>
<path d="M5.09507 38.6537C6.42568 38.4309 7.92797 38.4309 9.06542 39.2554C9.77365 39.7234 10.0741 40.4366 10.439 41.1943C9.70927 41.5954 8.97958 42.0189 8.22843 42.3754C7.77774 41.9074 7.49875 41.3057 6.83344 41.1274C5.76038 40.8154 4.45123 41.2834 3.72154 42.1526C2.84163 43.1554 2.51971 44.604 2.60555 45.9189C2.60555 46.8326 3.14209 47.7463 4.022 48.036C5.37407 48.4372 6.68321 47.7909 7.47728 46.632C8.0782 47.1 8.76497 47.4566 9.36588 47.9246C8.20697 50.064 5.39553 50.9777 3.16355 50.4652C1.57541 50.064 0.373572 48.66 0.0516516 47.0109C-0.699496 43.4229 1.57541 39.456 5.09507 38.6537Z" fill="#FF8483"/>
<path d="M24.8178 38.8094C25.6763 38.7648 26.5562 38.8094 27.4147 38.7871C27.1571 40.9488 26.7708 43.1105 26.4274 45.25C26.3201 46.0077 26.0197 46.7654 26.4918 47.434C27.0927 48.37 28.4663 48.2808 29.3033 47.746C30.1617 47.2111 30.4193 46.3197 30.591 45.3614C30.9558 43.1774 31.3206 40.9934 31.6211 38.7871H34.2394C33.8531 41.194 33.5097 43.6231 33.059 46.03C32.8444 47.2557 32.2649 48.3923 31.3636 49.2168C29.7969 50.5763 27.5864 50.9774 25.6763 50.3311C24.9037 50.0637 24.3028 49.5288 23.9808 48.7488C23.5731 47.902 23.6589 46.8323 23.7662 45.9185C24.1096 43.5563 24.5603 41.194 24.8178 38.8094Z" fill="#FF8483"/>
<path d="M47.5674 38.7871H50.3359C49.6706 42.6425 49.0911 46.5203 48.3829 50.3757H45.7217C46.3655 46.5203 47.0523 42.6648 47.5674 38.7871Z" fill="#FF8483"/>
<path d="M53.0611 38.7866H60.2292C60.1219 39.5889 59.9717 40.3466 59.7785 41.3272C58.1904 41.3718 56.5808 41.3495 54.9926 41.3495C54.8639 41.9735 54.7566 42.6198 54.6492 43.266C56.0657 43.266 57.4821 43.266 58.8771 43.2438C58.7269 44.1352 58.5767 44.9598 58.405 45.8512C57.01 45.8066 55.615 45.8066 54.1986 45.8289C54.1127 46.5198 53.9839 47.2106 53.8766 47.9015C55.5077 47.8792 57.1602 47.8346 58.7913 47.8346C58.6625 48.7038 58.5338 49.5283 58.405 50.3752C55.894 50.3752 53.383 50.3752 50.8506 50.3752C51.43 46.7203 52.0739 43.0878 52.6533 39.4552C52.7821 39.1432 52.6533 38.742 53.0611 38.7866Z" fill="#FF8483"/>
<path d="M21.5558 40.5476C20.4398 38.787 18.1649 38.2744 16.2763 38.6979C12.9283 39.3219 10.6534 42.9321 10.9538 46.3419C10.9968 48.303 12.3703 50.0636 14.216 50.4647C15.9543 50.8436 17.8859 50.487 19.3023 49.3727C20.869 48.1693 21.8133 46.3419 22.1567 44.3584C22.3069 42.999 22.3069 41.7287 21.5558 40.5476ZM19.3882 44.5813C19.1306 46.0967 18.2078 47.5899 16.7269 48.0579C16.0402 48.2139 15.2032 48.2139 14.6023 47.7459C14.1301 47.3893 13.8082 46.8767 13.658 46.2973C13.5077 45.7179 13.5721 45.6064 13.5936 45.2721C13.7653 43.3779 14.6881 41.5281 16.6411 41.0601C17.4996 40.9264 18.4439 41.127 19.0019 41.8624C19.5813 42.6201 19.5813 43.6676 19.3882 44.5813Z" fill="#FF8483"/>
<path d="M43.9828 44.2695C44.691 43.0661 44.9915 41.417 44.1974 40.1912C43.5536 39.2107 42.3732 38.8541 41.2787 38.7872C39.7764 38.765 38.2741 38.7872 36.7718 38.7872C36.1065 42.6427 35.6129 46.5427 34.7759 50.3535H37.5015C37.7375 49.0164 37.9951 47.6792 38.1882 46.3421C38.596 46.3421 39.0038 46.3644 39.4115 46.3644C39.8837 47.7015 40.4202 49.0164 40.8709 50.3535H43.8755C43.2102 48.8604 42.6093 47.3227 41.9225 45.8295C42.7595 45.4952 43.4892 45.0718 43.9828 44.2695ZM40.9353 43.757C40.2271 43.9798 39.3901 43.913 38.6389 43.8907C38.8106 43.0438 38.8965 42.1301 39.1111 41.261C39.7335 41.261 40.3773 41.2387 41.0426 41.3055C41.7079 41.3724 41.6006 41.3724 41.7294 41.4615C42.502 42.0632 41.9869 43.4004 41.0641 43.6901L40.9353 43.757Z" fill="#FF8483"/>
<path d="M39.9698 2.34988L38.6606 32.9705L47.9963 32.9036L57.7183 14.0945L57.2033 32.8813L66.3029 32.9927L76.5829 11.8213H68.0627L63.7704 21.5156L64.9294 2.28303L56.6238 2.26074L46.816 21.1813L48.211 2.3276L39.9698 2.34988Z" fill="#FFF0EF"/>
<path d="M68.8784 10.1279L77.3771 10.1056L78.815 7.38672H70.1017L68.8784 10.1279Z" fill="#FFF0EF"/>
<path d="M71.0674 5.00171L79.9738 4.97942L81.3259 2.23828L72.3121 2.32742L71.0674 5.00171Z" fill="#FFF0EF"/>
<path d="M69.7367 44.292C70.4449 43.0886 70.7454 41.4394 69.9513 40.2137C69.3075 39.2331 68.1271 38.8766 67.0326 38.8097C65.5303 38.7874 64.028 38.8097 62.5257 38.8097C61.8604 42.6651 61.3668 46.5651 60.5298 50.376H63.2554C63.4915 49.0389 63.749 47.7017 63.9421 46.3646C64.3499 46.3646 64.7577 46.3869 65.1654 46.3869C65.6376 47.724 66.1741 49.0389 66.6248 50.376H69.6294C68.9641 48.8829 68.3632 47.3451 67.6764 45.852C68.5134 45.5177 69.2431 45.0943 69.7367 44.292ZM66.6892 43.7794C65.981 44.0023 65.144 43.9354 64.3928 43.9131C64.5645 43.0663 64.6504 42.1526 64.865 41.2834C65.4874 41.2834 66.1312 41.2611 66.7965 41.328C67.4618 41.3949 67.3545 41.3949 67.4833 41.484C68.2559 42.0857 67.7408 43.4229 66.818 43.7126L66.6892 43.7794Z" fill="#FF8483"/>
</g>
<defs>
<clipPath id="clip0_3198_82339">
<rect width="82" height="52" fill="white"/>
</clipPath>
</defs>
</svg>
